<?xml version="1.0" encoding="UTF-8" standalone="no"?>
<svg
   version="1.1"
   id="svg2"
   xml:space="preserve"
   width="230"
   height="219"
   viewBox="0 0 230.00001 219.00001"
   sodipodi:docname="klimawandel1.svg"
   inkscape:version="1.1.1 (3bf5ae0d25, 2021-09-20)"
   xmlns:inkscape="http://www.inkscape.org/namespaces/inkscape"
   xmlns:sodipodi="http://sodipodi.sourceforge.net/DTD/sodipodi-0.dtd"
   xmlns="http://www.w3.org/2000/svg"
   xmlns:svg="http://www.w3.org/2000/svg"
   xmlns:rdf="http://www.w3.org/1999/02/22-rdf-syntax-ns#"
   xmlns:cc="http://creativecommons.org/ns#"
   xmlns:dc="http://purl.org/dc/elements/1.1/"><metadata
     id="metadata8"><rdf:RDF><cc:Work
         rdf:about=""><dc:format>image/svg+xml</dc:format><dc:type
           rdf:resource="http://purl.org/dc/dcmitype/StillImage" /></cc:Work></rdf:RDF></metadata><defs
     id="defs6"><clipPath
       clipPathUnits="userSpaceOnUse"
       id="clipPath444"><path
         d="m 11538.8,2046.32 c 4.1,0.88 8.1,1.77 12.1,2.67 0.1,-0.13 0.3,-0.32 0.4,-0.46 l -12.5,-2.21 m -1065.8,422.6 c -119.6,438.6 -252.1,1222.38 -214.3,2484.28 l 100.3,156.57 c 0,0 -15.8,-249.85 -17,-612.56 l 670.1,-17.06 c 3.4,-13.92 7.1,-28.18 11.2,-42.83 6.5,-23.29 13.3,-46.23 20.6,-68.83 v -0.21 l -701.9,36.51 c 0.5,-153.65 3.9,-323.84 12,-501.61 l 702.5,-17.87 c -6.9,149.85 -11.2,310.36 -12.3,482.14 22.1,-68.74 47.8,-134.35 76.9,-196.47 2.4,-429.5 30.4,-944.81 125.7,-1382.89 -21.3,-12.39 -43.1,-24.68 -65,-36.63 -21.2,109.33 -41.6,232.73 -59.9,371.28 l -699.1,6.66 c 23.6,-166.69 53.6,-328.97 91.6,-479.84 l 439.7,-10.62 c -65.4,-29.06 -133.1,-56.4 -202.4,-81.71 l -213.1,1.92 c 6.3,-22.3 12.8,-44.32 19.5,-66 -28.1,-8.38 -56.4,-16.45 -85.1,-24.23 m -114.4,1342.22 c 10.6,-193.87 27.1,-394.69 52,-591.25 l 699.3,-17.79 2.6,-5.41 c -20.8,170.38 -38.2,362.45 -50.4,577.86 l -703.5,36.59 m 753.7,1192.66 38.8,60.64 c 0,0 -0.6,-7.34 -1.7,-21.33 -12.9,-12.97 -25.3,-26.04 -37.1,-39.31"
         id="path442" /></clipPath><clipPath
       clipPathUnits="userSpaceOnUse"
       id="clipPath2583"><rect
         style="opacity:0.82;fill:#000000;stroke-width:7.48568"
         id="rect2585"
         width="8094.9868"
         height="7478.2261"
         x="6765.0962"
         y="-8670.1094"
         transform="scale(1,-1)" /></clipPath></defs><sodipodi:namedview
     pagecolor="#ffffff"
     bordercolor="#666666"
     borderopacity="1"
     objecttolerance="10"
     gridtolerance="10"
     guidetolerance="10"
     inkscape:pageopacity="0"
     inkscape:pageshadow="2"
     inkscape:window-width="1920"
     inkscape:window-height="1017"
     id="namedview4"
     inkscape:pagecheckerboard="0"
     showgrid="false"
     inkscape:zoom="1.5565189"
     inkscape:cx="289.42791"
     inkscape:cy="125.60079"
     inkscape:window-x="1358"
     inkscape:window-y="-8"
     inkscape:window-maximized="1"
     inkscape:current-layer="g10"
     width="230px" /><g
     id="g10"
     inkscape:groupmode="layer"
     inkscape:label="ink_ext_XXXXXX"
     transform="matrix(1.3333333,0,0,-1.3333333,0,1333.3333)"><g
       id="g12"
       transform="matrix(0.02130949,0,0,0.02196377,-144.64265,808.60809)"
       clip-path="url(#clipPath2583)"><path
         d="M 0,0 H 16000 V 10000 H 0 Z"
         style="fill:#ffffff;fill-opacity:1;fill-rule:nonzero;stroke:none"
         id="path14" /><path
         d="m 8355.51,4872.77 c 0,0 -1688.55,1030.15 -493.15,2059.1 590.12,507.95 919,419.73 1193.93,331.51 258.84,-83.06 469.86,-166.11 806.04,248.3 693.27,854.59 949.97,892.66 1450.57,929.68 756.3,55.93 1461.3,-625.96 1345.3,-1560.13 -95.1,-765.62 1592.2,-104.68 1396.2,-1803.22 -114.3,-990.42 -1910.1,-1711.92 -3145.6,-1687.08 -1235.57,24.83 -643.6,320.8 -1080.65,422.02 -182.42,42.25 -236.15,-24.62 -276.43,-91.47 -56.24,-93.33 -86.29,-186.67 -403.65,16.78 -544.71,349.2 -619.7,895.12 -792.56,1134.51"
         style="fill:#f5f5e9;fill-opacity:1;fill-rule:nonzero;stroke:none"
         id="path16" /><path
         d="m 12448.3,5244.67 c 0,0 1244.1,501.2 545.9,2350.12 0,0 -1586.6,-1042.98 -545.9,-2350.12"
         style="fill:#c9dab5;fill-opacity:1;fill-rule:nonzero;stroke:none"
         id="path18" /><path
         d="m 12462,4694.11 c 0,0 1967.6,113.53 1926.9,2813.14 0,0 -2710.9,-668.6 -1926.9,-2813.14"
         style="fill:#afc891;fill-opacity:1;fill-rule:nonzero;stroke:none"
         id="path20" /><path
         d="m 12728.7,5125.13 c -3.1,0.05 -6.2,0.98 -9,2.84 -7,4.64 -9.2,13.37 -4.8,19.5 l 1395.8,1947.49 c 4.4,6.13 13.6,7.33 20.6,2.68 7,-4.64 9.2,-13.38 4.8,-19.5 l -1395.8,-1947.5 c -2.6,-3.68 -7,-5.58 -11.6,-5.51"
         style="fill:#6e9440;fill-opacity:1;fill-rule:nonzero;stroke:none"
         id="path22" /><path
         d="m 13790.2,6593.81 c -6.5,0.11 -12.7,4.16 -15.1,10.28 -2.9,7.42 1.1,15.07 8.8,17.09 l 451,117.17 c 7.7,1.99 16.4,-2.35 19.3,-9.79 2.8,-7.41 -1.1,-15.06 -8.9,-17.08 l -451,-117.18 c -1.3,-0.35 -2.7,-0.51 -4.1,-0.49"
         style="fill:#6e9440;fill-opacity:1;fill-rule:nonzero;stroke:none"
         id="path24" /><path
         d="m 13448.1,6155.33 c -7.3,0.12 -14.1,5.19 -15.7,12.12 -1.8,7.63 3.3,14.61 11.4,15.6 l 670.3,82.57 c 8.1,1.03 16.1,-4.38 17.9,-12 1.8,-7.63 -3.3,-14.61 -11.4,-15.6 l -670.3,-82.58 -2.2,-0.11"
         style="fill:#6e9440;fill-opacity:1;fill-rule:nonzero;stroke:none"
         id="path26" /><path
         d="m 13790.2,6593.81 c -7.1,0.12 -13.8,4.94 -15.6,11.68 l -131.7,485.74 c -2,7.59 2.8,14.75 10.8,15.99 8.1,1.21 16.2,-3.91 18.3,-11.5 l 131.6,-485.74 c 2.1,-7.59 -2.7,-14.74 -10.7,-15.99 l -2.7,-0.18"
         style="fill:#6e9440;fill-opacity:1;fill-rule:nonzero;stroke:none"
         id="path28" /><path
         d="m 13448.1,6155.33 c -6.8,0.11 -13.3,4.57 -15.4,11.04 l -204.7,634.17 c -2.4,7.53 2,14.91 9.9,16.5 7.9,1.63 16.3,-3.22 18.7,-10.75 l 204.7,-634.17 c 2.5,-7.52 -2,-14.9 -9.9,-16.49 -1.1,-0.23 -2.2,-0.32 -3.3,-0.3"
         style="fill:#6e9440;fill-opacity:1;fill-rule:nonzero;stroke:none"
         id="path30" /><path
         d="m 13090.1,5678.13 c -6.8,0.11 -13.3,4.57 -15.4,11.04 l -204.7,634.18 c -2.4,7.52 2,14.9 9.9,16.49 8,1.65 16.3,-3.22 18.8,-10.74 l 204.7,-634.18 c 2.4,-7.52 -2,-14.91 -10,-16.49 -1.1,-0.23 -2.2,-0.32 -3.3,-0.3"
         style="fill:#6e9440;fill-opacity:1;fill-rule:nonzero;stroke:none"
         id="path32" /><path
         d="m 13152.1,5686.77 c -7.2,0.12 -14,5.19 -15.6,12.11 -1.8,7.63 3.2,14.62 11.3,15.61 l 670.4,82.58 c 8.1,1.07 16,-4.38 17.8,-12 1.8,-7.63 -3.2,-14.61 -11.3,-15.61 l -670.4,-82.57 -2.2,-0.12"
         style="fill:#6e9440;fill-opacity:1;fill-rule:nonzero;stroke:none"
         id="path34" /><path
         d="m 14142.4,2587.21 c 14.5,-382.23 -890.8,-726.83 -2022,-769.68 -1131.3,-42.86 -2060,232.27 -2074.5,614.5 -14.5,382.23 890.8,726.83 2022,769.68 1131.2,42.86 2060,-232.27 2074.5,-614.5"
         style="fill:#e3e3df;fill-opacity:1;fill-rule:nonzero;stroke:none"
         id="path36" /><path
         d="m 13582.9,4584.52 c 0,-1434.78 -1163.1,-2597.91 -2597.9,-2597.91 -1434.75,0 -2597.88,1163.13 -2597.88,2597.91 0,1434.79 1163.13,2597.91 2597.88,2597.91 1434.8,0 2597.9,-1163.12 2597.9,-2597.91"
         style="fill:#94c756;fill-opacity:1;fill-rule:nonzero;stroke:none"
         id="path38" /><path
         d="m 13104.2,6087.69 c -115.2,18.13 -1295.4,189.14 -1502.7,-432.56 -217.4,-652.4 -765.2,-543.66 -578.2,-1217.81 187,-674.15 708.7,-1065.58 1361.1,-978.6 749.8,99.98 -684.8,-1013.03 -118.5,-1134.87 1250.9,685.75 1764.7,2402.5 838.3,3763.84"
         style="fill:#79a347;fill-opacity:1;fill-rule:nonzero;stroke:none"
         id="path40" /><path
         d="m 9569.06,6762.95 c 0,0 1365.14,125.64 1412.04,-287.38 47,-413.01 -164.3,-339.24 -540.3,-577.43 -375.9,-238.18 -849.62,-113.21 -1062.47,-475.27 -212.85,-362.07 -906.52,-177.94 -906.52,-177.94 0,0 146.97,899.52 1097.25,1518.02"
         style="fill:#79a347;fill-opacity:1;fill-rule:nonzero;stroke:none"
         id="path42" /><path
         d="m 8440.8,4106.28 c 0,0 833.83,178.82 1138.28,-408.35 304.45,-587.16 543.62,-347.94 739.42,-608.91 55,-73.39 49.9,-170.09 14,-271.17 -137.9,-388.65 -612.33,-535.8 -952.01,-301.96 -343.02,236.13 -749.42,696.91 -939.69,1590.39"
         style="fill:#79a347;fill-opacity:1;fill-rule:nonzero;stroke:none"
         id="path44" /><path
         d="m 10447.3,2042.14 c -50.5,10.68 -100.6,22.87 -150.7,36.66 49.3,-13.51 99.4,-25.64 149.8,-36.28 0.3,-0.13 0.6,-0.25 0.9,-0.38"
         style="fill:#b7dabc;fill-opacity:1;fill-rule:nonzero;stroke:none"
         id="path46" /><path
         d="m 10982.6,1986.19 c -178.5,0 -357.8,18.39 -535.3,55.95 -0.3,0.13 -0.6,0.25 -0.9,0.38 64.7,-13.64 130.2,-24.86 196.5,-33.58 0.2,-0.28 0.3,-0.42 0.3,-0.42 l 13.6,-1.38 c 42.5,-5.35 85.5,-9.7 128.6,-12.97 l 16.6,-1.68 v 0 c -0.1,0.17 -0.3,0.33 -0.4,0.5 60.6,-4.23 121.8,-6.38 183.4,-6.38 85.2,0 169.5,4.1 252.6,12.12 -84.6,-8.34 -169.6,-12.54 -255,-12.54"
         style="fill:#a3c2a4;fill-opacity:1;fill-rule:nonzero;stroke:none"
         id="path48" /><path
         d="m 10985,1986.61 c -61.6,0 -122.8,2.15 -183.4,6.38 -23,28.35 -44.8,59.19 -65.6,92.26 l 642.6,-5.81 c 17.9,-38.69 28.8,-56.46 28.8,-56.46 l 131.4,23.34 c -99.2,-21.68 -199.9,-37.6 -301.2,-47.59 -83.1,-8.02 -167.4,-12.12 -252.6,-12.12 m -199.6,7.56 c -43.1,3.27 -86.1,7.62 -128.6,12.97 l 128.6,-12.97 m -142.5,14.77 c -66.3,8.72 -131.8,19.94 -196.5,33.58 -50.4,10.64 -100.5,22.77 -149.8,36.28 -212.3,58.49 -420.69,145.17 -619.97,261.35 286.65,18.4 552.07,62.51 796.37,128.77 85.8,-314.54 165,-451.58 169.9,-459.98"
         style="fill:#6aab40;fill-opacity:1;fill-rule:nonzero;stroke:none"
         id="path50" /><path
         d="m 13492.6,3903.03 c 33,121.7 57.4,247.04 72.5,375.14 0.1,0.14 0.3,0.25 0.4,0.4 -14.8,-125.82 -39,-251.41 -72.9,-375.54"
         style="fill:#b7dabc;fill-opacity:1;fill-rule:nonzero;stroke:none"
         id="path52" /><path
         d="m 13565.1,4278.17 c 11.8,100.51 17.8,202.67 17.8,306.35 0,87.05 -4.2,173.02 -12.6,257.87 18.8,-186.41 17.5,-375.54 -4.8,-563.82 -0.1,-0.15 -0.3,-0.26 -0.4,-0.4"
         style="fill:#b0d2ac;fill-opacity:1;fill-rule:nonzero;stroke:none"
         id="path54" /><path
         d="m 12720.1,6518.14 c -67.1,60.26 -137.3,117.02 -210.5,170.11 73.8,-53.32 144.2,-110.09 210.8,-169.74 -0.1,-0.14 -0.2,-0.23 -0.3,-0.37"
         style="fill:#90bb86;fill-opacity:1;fill-rule:nonzero;stroke:none"
         id="path56" /><path
         d="m 13238.2,5878.66 c -138.1,239.91 -313.5,455.72 -518.1,639.48 0.1,0.14 0.2,0.23 0.3,0.37 209.1,-187.21 382.5,-403.79 517.8,-639.85"
         style="fill:#7dac6b;fill-opacity:1;fill-rule:nonzero;stroke:none"
         id="path58" /><path
         d="m 11550.9,2048.99 c -141.9,175.07 -238.8,438.9 -304.1,739.1 313.9,182.17 574.3,410.9 782.4,671.36 57.6,-8.43 116.8,-12.74 177.4,-12.74 58.1,0 117.3,3.94 177.8,12.01 32.1,4.28 60.3,6.34 84.7,6.34 545.9,0 -745.3,-1024.59 -203.2,-1141.21 -224.1,-126.66 -465.4,-219.07 -715,-274.86 m 1740.5,1339.71 c 408.7,800.76 408.6,1823.39 -187.2,2698.99 -43.2,6.79 -235.7,35.03 -470.6,35.03 -24.1,0 -48.7,-0.3 -73.5,-0.95 -61.1,243.56 -150.1,481.26 -266.7,707.12 75.2,-43.79 147.2,-90.73 216.2,-140.64 73.2,-53.09 143.4,-109.85 210.5,-170.11 204.6,-183.76 380,-399.57 518.1,-639.48 182.6,-318.65 295.5,-672.44 332.1,-1036.27 8.4,-84.85 12.6,-170.82 12.6,-257.87 0,-103.68 -6,-205.84 -17.8,-306.35 -15.1,-128.1 -39.5,-253.44 -72.5,-375.14 -47.7,-175.1 -114.5,-347.43 -201.2,-514.33"
         style="fill:#6aab40;fill-opacity:1;fill-rule:nonzero;stroke:none"
         id="path60" /><path
         d="m 12265.9,2323.85 c -542.1,116.62 749.1,1141.21 203.2,1141.21 -24.4,0 -52.6,-2.06 -84.7,-6.34 -60.5,-8.07 -119.7,-12.01 -177.8,-12.01 -60.6,0 -119.8,4.31 -177.4,12.74 274.5,343.52 458,742.39 553.1,1162.92 38.9,16.25 63.9,41.7 63.9,70.31 0,21.6 -14.2,41.39 -38,56.79 82.1,450.17 65,921.08 -48.1,1372.3 24.8,0.65 49.4,0.95 73.5,0.95 234.9,0 427.4,-28.24 470.6,-35.03 595.8,-875.6 595.9,-1898.23 187.2,-2698.99 -19.6,-37.82 -40.3,-75.35 -62,-112.58 -240.2,-412.02 -576.3,-733.36 -963.5,-952.27"
         style="fill:#578b34;fill-opacity:1;fill-rule:nonzero;stroke:none"
         id="path62" /><path
         d="m 11344.3,2160.01 -659.9,15.93 c -48.4,93.77 -90.2,200.79 -126.3,317.21 66.2,19.74 130.6,41.1 193.6,64.08 l 473,-4.28 c 43.1,-179.68 86.1,-307.76 119.6,-392.94 m -137.9,472.84 -252.3,6.09 c 78.8,34.97 154.5,72.44 227.7,112.52 8.1,-41.55 16.3,-81.06 24.6,-118.61"
         style="fill:#6aab40;fill-opacity:1;fill-rule:nonzero;stroke:none"
         id="path64" /><path
         d="m 1844.02,4905.2 h 30.6 v -241.94 h -30.6 v 241.94"
         style="fill:#c0bfb9;fill-opacity:1;fill-rule:nonzero;stroke:none"
         id="path66" /><path
         d="m 2063.4,4755.47 c 0,39.45 -13.27,66.01 -47.21,66.01 -15.11,0 -30.24,-8.48 -47.95,-24.33 v -94.05 c 16.22,-13.65 32.09,-18.81 43.89,-18.81 29.52,0 51.27,26.91 51.27,71.18 z m -125.4,87.04 h 25.07 l 2.6,-20.66 h 1.1 c 16.23,13.65 36.16,25.07 57.16,25.07 46.11,0 70.82,-35.76 70.82,-91.45 0,-60.86 -36.52,-96.63 -77.45,-96.63 -16.61,0 -33.2,7.74 -49.8,20.65 l 0.74,-31.35 v -60.48 H 1938 v 254.85"
         style="fill:#c0bfb9;fill-opacity:1;fill-rule:nonzero;stroke:none"
         id="path68" /><path
         d="m 2122.67,4683.55 15.12,20.29 c 15.48,-12.55 31.34,-21.4 52.73,-21.4 23.61,0 35.41,12.54 35.41,28.03 0,18.44 -21.39,26.55 -40.93,33.93 -25.46,9.21 -53.49,21.39 -53.49,51.63 0,28.77 22.86,50.89 61.59,50.89 22.5,0 42.04,-9.21 55.69,-20.27 l -14.37,-19.18 c -12.19,9.22 -25.1,15.85 -40.94,15.85 -22.5,0 -32.83,-12.16 -32.83,-25.81 0,-16.96 19.54,-23.23 39.82,-30.97 25.82,-9.6 54.59,-20.29 54.59,-54.23 0,-29.14 -23.24,-53.47 -65.64,-53.47 -25.45,0 -49.8,10.7 -66.75,24.71"
         style="fill:#c0bfb9;fill-opacity:1;fill-rule:nonzero;stroke:none"
         id="path70" /><path
         d="m 2294.45,4728.91 v 113.6 h 30.6 v -109.54 c 0,-33.57 9.98,-47.94 33.58,-47.94 18.44,0 31.35,9.22 48.32,30.23 v 127.25 h 30.23 v -179.25 h -25.09 l -2.57,28.03 h -1.11 c -16.58,-19.54 -34.3,-32.45 -59.01,-32.45 -37.97,0 -54.95,24.33 -54.95,70.07"
         style="fill:#c0bfb9;fill-opacity:1;fill-rule:nonzero;stroke:none"
         id="path72" /><path
         d="m 2497.56,4842.51 h 25.09 l 2.58,-25.82 h 1.1 c 15.48,16.97 34.3,30.23 55.69,30.23 27.28,0 42.04,-12.9 49.42,-34.29 18.82,20.29 37.26,34.29 59.02,34.29 36.87,0 54.58,-24.33 54.58,-70.06 v -113.6 h -30.23 v 109.54 c 0,33.57 -10.7,47.95 -33.2,47.95 -14.02,0 -28.42,-9.23 -45,-27.66 v -129.83 h -30.24 v 109.54 c 0,33.57 -10.69,47.95 -33.58,47.95 -13.26,0 -28.38,-9.23 -45,-27.66 v -129.83 h -30.23 v 179.25"
         style="fill:#c0bfb9;fill-opacity:1;fill-rule:nonzero;stroke:none"
         id="path74" /><path
         d="m 2990.44,4708.99 v 93.69 c -15.12,13.64 -28.77,18.8 -43.51,18.8 -28.77,0 -51.65,-27.66 -51.65,-68.6 0,-42.78 18.08,-68.59 49.42,-68.59 16.61,0 30.98,8.1 45.74,24.7 z m -126.5,43.52 c 0,58.28 36.9,94.41 77.83,94.41 20.65,0 34.3,-7.73 50.14,-20.64 l -1.47,30.61 v 68.96 h 30.63 v -262.59 h -25.1 l -2.57,21.03 h -1.1 c -14.02,-13.65 -33.2,-25.45 -54.23,-25.45 -45,0 -74.13,33.93 -74.13,93.67"
         style="fill:#c0bfb9;fill-opacity:1;fill-rule:nonzero;stroke:none"
         id="path76" /><path
         d="m 3202.75,4752.51 c 0,41.31 -20.64,69.34 -51.63,69.34 -30.6,0 -51.63,-28.03 -51.63,-69.34 0,-40.93 21.03,-68.58 51.63,-68.58 30.99,0 51.63,27.65 51.63,68.58 z m -134.6,0 c 0,60.12 39.08,94.41 82.97,94.41 43.89,0 82.97,-34.29 82.97,-94.41 0,-59.37 -39.08,-93.67 -82.97,-93.67 -43.89,0 -82.97,34.3 -82.97,93.67"
         style="fill:#c0bfb9;fill-opacity:1;fill-rule:nonzero;stroke:none"
         id="path78" /><path
         d="m 3281.2,4699.4 v 226.45 h 30.24 v -228.66 c 0,-9.59 4.06,-13.26 8.48,-13.26 1.85,0 3.32,0 6.64,0.73 l 4.06,-22.87 c -4.06,-1.84 -9.2,-2.95 -17.33,-2.95 -22.86,0 -32.09,14.38 -32.09,40.56"
         style="fill:#c0bfb9;fill-opacity:1;fill-rule:nonzero;stroke:none"
         id="path80" /><path
         d="m 3496.54,4752.51 c 0,41.31 -20.65,69.34 -51.63,69.34 -30.6,0 -51.63,-28.03 -51.63,-69.34 0,-40.93 21.03,-68.58 51.63,-68.58 30.98,0 51.63,27.65 51.63,68.58 z m -134.6,0 c 0,60.12 39.08,94.41 82.97,94.41 43.89,0 82.98,-34.29 82.98,-94.41 0,-59.37 -39.09,-93.67 -82.98,-93.67 -43.89,0 -82.97,34.3 -82.97,93.67"
         style="fill:#c0bfb9;fill-opacity:1;fill-rule:nonzero;stroke:none"
         id="path82" /><path
         d="m 3574.99,4842.51 h 25.1 l 2.57,-32.45 h 1.11 c 12.16,22.5 30.62,36.86 50.88,36.86 7.76,0 13.3,-1.1 19.18,-3.68 l -5.88,-26.55 c -5.92,1.83 -9.96,2.95 -17.34,2.95 -15.12,0 -33.19,-11.07 -45.38,-41.3 v -115.08 h -30.24 v 179.25"
         style="fill:#c0bfb9;fill-opacity:1;fill-rule:nonzero;stroke:none"
         id="path84" /><path
         d="m 3756.71,4683.55 15.11,20.29 c 15.48,-12.55 31.34,-21.4 52.74,-21.4 23.6,0 35.41,12.54 35.41,28.03 0,18.44 -21.4,26.55 -40.94,33.93 -25.45,9.21 -53.48,21.39 -53.48,51.63 0,28.77 22.85,50.89 61.58,50.89 22.5,0 42.04,-9.21 55.69,-20.27 l -14.37,-19.18 c -12.19,9.22 -25.09,15.85 -40.93,15.85 -22.5,0 -32.84,-12.16 -32.84,-25.81 0,-16.96 19.54,-23.23 39.83,-30.97 25.81,-9.6 54.59,-20.29 54.59,-54.23 0,-29.14 -23.25,-53.47 -65.65,-53.47 -25.45,0 -49.8,10.7 -66.74,24.71"
         style="fill:#c0bfb9;fill-opacity:1;fill-rule:nonzero;stroke:none"
         id="path86" /><path
         d="m 3931.06,4842.51 h 30.24 v -179.25 h -30.24 z m -5.53,56.42 c 0,11.8 9.23,19.56 21.03,19.56 11.81,0 21.01,-7.76 21.01,-19.56 0,-11.43 -9.2,-19.54 -21.01,-19.54 -11.8,0 -21.03,8.11 -21.03,19.54"
         style="fill:#c0bfb9;fill-opacity:1;fill-rule:nonzero;stroke:none"
         id="path88" /><path
         d="m 4026.89,4718.58 v 99.21 h -26.56 v 22.87 l 28.03,1.85 3.7,50.17 h 25.46 v -50.17 h 48.31 v -24.72 h -48.31 v -99.58 c 0,-22.13 6.99,-34.66 27.64,-34.66 6.27,0 14.39,2.58 20.28,4.8 l 5.92,-22.87 c -9.98,-3.32 -22.14,-6.64 -33.2,-6.64 -38.36,0 -51.27,24.33 -51.27,59.74"
         style="fill:#c0bfb9;fill-opacity:1;fill-rule:nonzero;stroke:none"
         id="path90" /><path
         d="m 4318.88,4707.16 v 49.78 c -59.73,-7.37 -80.4,-22.14 -80.4,-44.99 0,-20.29 14.01,-28.78 31.73,-28.78 17.33,0 31.34,8.49 48.67,23.99 z m -109.89,2.58 c 0,39.08 33.55,58.64 109.89,67.12 0,22.86 -7.38,44.99 -36.87,44.99 -20.65,0 -39.47,-9.58 -53.48,-19.17 l -11.81,21.02 c 16.62,10.69 41.68,23.22 70.46,23.22 43.89,0 62.33,-29.13 62.33,-73.75 v -109.91 h -25.1 l -2.57,21.4 h -1.11 c -16.96,-14.02 -36.87,-25.82 -59.37,-25.82 -29.87,0 -52.37,18.81 -52.37,50.9"
         style="fill:#c0bfb9;fill-opacity:1;fill-rule:nonzero;stroke:none"
         id="path92" /><path
         d="m 4405.82,4842.51 h 25.09 l 2.57,-25.82 h 1.11 c 15.48,16.97 34.3,30.23 55.69,30.23 27.28,0 42.04,-12.9 49.42,-34.29 18.8,20.29 37.26,34.29 59.01,34.29 36.87,0 54.59,-24.33 54.59,-70.06 v -113.6 h -30.24 v 109.54 c 0,33.57 -10.7,47.95 -33.19,47.95 -14.01,0 -28.41,-9.23 -45,-27.66 v -129.83 h -30.24 v 109.54 c 0,33.57 -10.69,47.95 -33.58,47.95 -13.27,0 -28.38,-9.23 -44.99,-27.66 v -129.83 h -30.24 v 179.25"
         style="fill:#c0bfb9;fill-opacity:1;fill-rule:nonzero;stroke:none"
         id="path94" /><path
         d="m 4823.52,4767.27 c 0,36.14 -16.23,55.7 -44.28,55.7 -25.07,0 -47.93,-20.29 -51.63,-55.7 z m -125.4,-14.76 c 0,58.65 39.46,94.41 80.4,94.41 45.72,0 71.53,-32.81 71.53,-84.07 0,-6.28 -0.36,-12.91 -1.1,-17.34 h -120.96 c 2.22,-37.98 25.43,-62.34 59.74,-62.34 16.96,0 31.36,5.54 44.63,14.02 l 10.7,-19.92 c -15.51,-9.95 -34.66,-18.43 -59.01,-18.43 -47.96,0 -85.93,35.04 -85.93,93.67"
         style="fill:#c0bfb9;fill-opacity:1;fill-rule:nonzero;stroke:none"
         id="path96" /><path
         d="m 4895.69,4718.58 v 99.21 h -26.56 v 22.87 l 28.03,1.85 3.7,50.17 h 25.45 v -50.17 h 48.32 v -24.72 h -48.32 v -99.58 c 0,-22.13 7,-34.66 27.65,-34.66 6.27,0 14.4,2.58 20.28,4.8 l 5.92,-22.87 c -9.98,-3.32 -22.14,-6.64 -33.2,-6.64 -38.36,0 -51.27,24.33 -51.27,59.74"
         style="fill:#c0bfb9;fill-opacity:1;fill-rule:nonzero;stroke:none"
         id="path98" /><path
         d="m 5004.79,4618.27 c 21.03,9.21 33.56,25.45 33.19,44.99 -1.1,-0.37 -2.56,-0.37 -3.67,-0.37 -11.8,0 -21.78,7.38 -21.78,21.04 0,13.26 10.34,21.37 22.5,21.37 15.86,0 25.45,-13.64 25.45,-35.76 0,-31.72 -18.43,-56.43 -48.31,-68.97 l -7.38,17.7"
         style="fill:#c0bfb9;fill-opacity:1;fill-rule:nonzero;stroke:none"
         id="path100" /><path
         d="m 5169.94,4752.51 c 0,60.12 40.19,94.41 86.3,94.41 23.6,0 39.82,-9.57 52.37,-21.01 L 5293.13,4806 c -10.34,9.21 -21.39,15.85 -35.79,15.85 -32.45,0 -56.05,-28.03 -56.05,-69.34 0,-40.93 22.5,-68.58 55.33,-68.58 16.58,0 30.96,8.1 42.04,18.05 l 13.27,-20.28 c -16.23,-14.38 -36.51,-22.86 -57.91,-22.86 -47.56,0 -84.08,34.3 -84.08,93.67"
         style="fill:#c0bfb9;fill-opacity:1;fill-rule:nonzero;stroke:none"
         id="path102" /><path
         d="m 5464.89,4752.51 c 0,41.31 -20.65,69.34 -51.63,69.34 -30.6,0 -51.63,-28.03 -51.63,-69.34 0,-40.93 21.03,-68.58 51.63,-68.58 30.98,0 51.63,27.65 51.63,68.58 z m -134.61,0 c 0,60.12 39.09,94.41 82.98,94.41 43.89,0 82.98,-34.29 82.98,-94.41 0,-59.37 -39.09,-93.67 -82.98,-93.67 -43.89,0 -82.98,34.3 -82.98,93.67"
         style="fill:#c0bfb9;fill-opacity:1;fill-rule:nonzero;stroke:none"
         id="path104" /><path
         d="m 5543.34,4842.51 h 25.09 l 2.58,-25.82 h 1.11 c 16.96,16.97 35.4,30.23 60.11,30.23 37.61,0 54.59,-24.33 54.59,-70.06 v -113.6 h -30.24 v 109.54 c 0,33.57 -10.34,47.95 -33.94,47.95 -18.44,0 -30.98,-9.59 -49.06,-27.66 v -129.83 h -30.24 v 179.25"
         style="fill:#c0bfb9;fill-opacity:1;fill-rule:nonzero;stroke:none"
         id="path106" /><path
         d="m 5725.08,4683.55 15.12,20.29 c 15.48,-12.55 31.34,-21.4 52.73,-21.4 23.6,0 35.41,12.54 35.41,28.03 0,18.44 -21.4,26.55 -40.94,33.93 -25.45,9.21 -53.48,21.39 -53.48,51.63 0,28.77 22.86,50.89 61.58,50.89 22.5,0 42.05,-9.21 55.7,-20.27 l -14.38,-19.18 c -12.18,9.22 -25.09,15.85 -40.93,15.85 -22.5,0 -32.84,-12.16 -32.84,-25.81 0,-16.96 19.54,-23.23 39.83,-30.97 25.82,-9.6 54.59,-20.29 54.59,-54.23 0,-29.14 -23.25,-53.47 -65.64,-53.47 -25.46,0 -49.81,10.7 -66.75,24.71"
         style="fill:#c0bfb9;fill-opacity:1;fill-rule:nonzero;stroke:none"
         id="path108" /><path
         d="m 6011.57,4767.27 c 0,36.14 -16.23,55.7 -44.28,55.7 -25.07,0 -47.93,-20.29 -51.63,-55.7 z m -125.4,-14.76 c 0,58.65 39.47,94.41 80.4,94.41 45.72,0 71.53,-32.81 71.53,-84.07 0,-6.28 -0.36,-12.91 -1.1,-17.34 h -120.95 c 2.21,-37.98 25.43,-62.34 59.72,-62.34 16.98,0 31.37,5.54 44.64,14.02 l 10.7,-19.92 c -15.51,-9.95 -34.66,-18.43 -59.01,-18.43 -47.96,0 -85.93,35.04 -85.93,93.67"
         style="fill:#c0bfb9;fill-opacity:1;fill-rule:nonzero;stroke:none"
         id="path110" /><path
         d="m 6068.98,4752.51 c 0,60.12 40.19,94.41 86.29,94.41 23.61,0 39.83,-9.57 52.38,-21.01 L 6192.17,4806 c -10.33,9.21 -21.39,15.85 -35.79,15.85 -32.45,0 -56.05,-28.03 -56.05,-69.34 0,-40.93 22.49,-68.58 55.33,-68.58 16.58,0 30.96,8.1 42.04,18.05 l 13.27,-20.28 c -16.23,-14.38 -36.52,-22.86 -57.91,-22.86 -47.57,0 -84.08,34.3 -84.08,93.67"
         style="fill:#c0bfb9;fill-opacity:1;fill-rule:nonzero;stroke:none"
         id="path112" /><path
         d="m 6251.82,4718.58 v 99.21 h -26.56 v 22.87 l 28.03,1.85 3.7,50.17 h 25.46 v -50.17 h 48.31 v -24.72 h -48.31 v -99.58 c 0,-22.13 6.99,-34.66 27.64,-34.66 6.27,0 14.4,2.58 20.29,4.8 l 5.91,-22.87 c -9.98,-3.32 -22.14,-6.64 -33.19,-6.64 -38.37,0 -51.28,24.33 -51.28,59.74"
         style="fill:#c0bfb9;fill-opacity:1;fill-rule:nonzero;stroke:none"
         id="path114" /><path
         d="m 1939.9,4264.8 v 49.8 c -59.75,-7.37 -80.4,-22.14 -80.4,-44.99 0,-20.29 14.02,-28.78 31.73,-28.78 17.33,0 31.34,8.49 48.67,23.97 z m -109.89,2.59 c 0,39.09 33.56,58.64 109.89,67.12 0,22.86 -7.37,45 -36.87,45 -20.67,0 -39.46,-9.59 -53.48,-19.18 l -11.8,21.02 c 16.58,10.7 41.68,23.23 70.45,23.23 43.87,0 62.33,-29.13 62.33,-73.75 v -109.91 h -25.1 l -2.57,21.39 h -1.11 c -16.96,-14.01 -36.89,-25.82 -59.39,-25.82 -29.85,0 -52.35,18.81 -52.35,50.9"
         style="fill:#c0bfb9;fill-opacity:1;fill-rule:nonzero;stroke:none"
         id="path116" /><path
         d="m 2140.46,4266.65 v 93.68 c -15.14,13.64 -28.77,18.81 -43.53,18.81 -28.77,0 -51.63,-27.67 -51.63,-68.6 0,-42.79 18.08,-68.61 49.42,-68.61 16.58,0 30.98,8.12 45.74,24.72 z m -126.5,43.52 c 0,58.28 36.87,94.41 77.8,94.41 20.65,0 34.31,-7.73 50.17,-20.65 l -1.47,30.62 v 68.97 h 30.6 v -262.6 h -25.07 l -2.6,21.01 h -1.1 c -14.02,-13.63 -33.2,-25.44 -54.2,-25.44 -45,0 -74.13,33.93 -74.13,93.68"
         style="fill:#c0bfb9;fill-opacity:1;fill-rule:nonzero;stroke:none"
         id="path118" /><path
         d="m 2231.43,4400.16 h 30.24 v -179.24 h -30.24 z m -5.53,56.42 c 0,11.81 9.24,19.56 21.04,19.56 11.8,0 21.01,-7.75 21.01,-19.56 0,-11.42 -9.21,-19.54 -21.01,-19.54 -11.8,0 -21.04,8.12 -21.04,19.54"
         style="fill:#c0bfb9;fill-opacity:1;fill-rule:nonzero;stroke:none"
         id="path120" /><path
         d="m 2447.5,4313.12 c 0,39.46 -13.27,66.02 -47.21,66.02 -15.12,0 -30.24,-8.49 -47.95,-24.34 v -94.06 c 16.22,-13.63 32.08,-18.81 43.89,-18.81 29.51,0 51.27,26.93 51.27,71.19 z m -125.4,87.04 h 25.09 l 2.57,-20.65 h 1.11 c 16.22,13.64 36.15,25.07 57.16,25.07 46.1,0 70.81,-35.76 70.81,-91.46 0,-60.85 -36.51,-96.63 -77.45,-96.63 -16.58,0 -33.19,7.75 -49.78,20.65 l 0.73,-31.34 v -60.49 h -30.24 v 254.85"
         style="fill:#c0bfb9;fill-opacity:1;fill-rule:nonzero;stroke:none"
         id="path122" /><path
         d="m 2526.67,4400.16 h 30.24 v -179.24 h -30.24 z m -5.53,56.42 c 0,11.81 9.23,19.56 21.03,19.56 11.8,0 21,-7.75 21,-19.56 0,-11.42 -9.2,-19.54 -21,-19.54 -11.8,0 -21.03,8.12 -21.03,19.54"
         style="fill:#c0bfb9;fill-opacity:1;fill-rule:nonzero;stroke:none"
         id="path124" /><path
         d="m 2597.43,4241.2 15.11,20.29 c 15.48,-12.55 31.35,-21.39 52.74,-21.39 23.61,0 35.41,12.54 35.41,28.02 0,18.44 -21.4,26.57 -40.94,33.93 -25.45,9.22 -53.48,21.4 -53.48,51.65 0,28.76 22.86,50.88 61.58,50.88 22.5,0 42.04,-9.22 55.7,-20.27 l -14.38,-19.18 c -12.19,9.22 -25.09,15.85 -40.93,15.85 -22.5,0 -32.84,-12.16 -32.84,-25.81 0,-16.97 19.55,-23.24 39.83,-30.99 25.82,-9.58 54.59,-20.27 54.59,-54.22 0,-29.13 -23.24,-53.47 -65.64,-53.47 -25.46,0 -49.81,10.7 -66.75,24.71"
         style="fill:#c0bfb9;fill-opacity:1;fill-rule:nonzero;stroke:none"
         id="path126" /><path
         d="m 2758.52,4310.17 c 0,60.11 40.18,94.41 86.29,94.41 23.6,0 39.82,-9.59 52.37,-21.02 l -15.47,-19.91 c -10.34,9.21 -21.4,15.86 -35.8,15.86 -32.45,0 -56.05,-28.04 -56.05,-69.34 0,-40.94 22.5,-68.61 55.33,-68.61 16.59,0 30.96,8.13 42.04,18.08 l 13.27,-20.29 c -16.23,-14.37 -36.51,-22.86 -57.91,-22.86 -47.56,0 -84.07,34.3 -84.07,93.68"
         style="fill:#c0bfb9;fill-opacity:1;fill-rule:nonzero;stroke:none"
         id="path128" /><path
         d="m 2939.86,4400.16 h 30.24 v -179.24 h -30.24 z m -5.52,56.42 c 0,11.81 9.23,19.56 21.03,19.56 11.8,0 21.01,-7.75 21.01,-19.56 0,-11.42 -9.21,-19.54 -21.01,-19.54 -11.8,0 -21.03,8.12 -21.03,19.54"
         style="fill:#c0bfb9;fill-opacity:1;fill-rule:nonzero;stroke:none"
         id="path130" /><path
         d="m 3030.53,4400.16 h 25.1 l 2.56,-25.81 h 1.11 c 16.97,16.97 35.41,30.23 60.11,30.23 37.62,0 54.59,-24.34 54.59,-70.07 v -113.59 h -30.23 v 109.53 c 0,33.57 -10.34,47.96 -33.94,47.96 -18.44,0 -30.99,-9.59 -49.06,-27.67 v -129.82 h -30.24 v 179.24"
         style="fill:#c0bfb9;fill-opacity:1;fill-rule:nonzero;stroke:none"
         id="path132" /><path
         d="m 3330.65,4340.78 c 0,26.18 -16.98,41.68 -37.98,41.68 -21.03,0 -38.01,-15.5 -38.01,-41.68 0,-26.18 17.33,-42.77 38.01,-42.77 20.65,0 37.98,16.59 37.98,42.77 z m 23.24,-144.94 c 0,16.59 -12.91,22.12 -36.15,22.12 h -30.99 c -6.99,0 -15.47,0.75 -23.24,2.96 -12.91,-9.22 -18.44,-19.91 -18.44,-30.24 0,-19.19 19.55,-31.35 52.02,-31.35 34.3,0 56.8,17.7 56.8,36.51 z m -135.38,-9.22 c 0,15.12 9.98,29.5 26.2,40.57 v 1.47 c -8.84,5.54 -15.86,15.13 -15.86,29.14 0,15.12 10.34,26.93 19.54,33.2 v 1.46 c -11.8,9.59 -23.22,26.93 -23.22,48.32 0,39.09 30.99,63.8 67.5,63.8 9.95,0 18.8,-1.84 25.43,-4.42 h 62.33 v -23.23 h -36.88 c 8.49,-8.11 14.76,-21.76 14.76,-36.88 0,-38.36 -29.13,-62.34 -65.64,-62.34 -8.88,0 -18.82,2.22 -26.95,6.28 -6.25,-5.54 -11.42,-11.44 -11.42,-21.39 0,-11.45 7.39,-19.55 31.71,-19.55 h 34.68 c 41.68,0 62.69,-12.91 62.69,-42.78 0,-33.19 -35.04,-61.97 -90.71,-61.97 -43.89,0 -74.16,17.33 -74.16,48.32"
         style="fill:#c0bfb9;fill-opacity:1;fill-rule:nonzero;stroke:none"
         id="path134" /><path
         d="m 3603.79,4324.92 c 0,36.14 -16.23,55.69 -44.28,55.69 -25.07,0 -47.93,-20.28 -51.63,-55.69 z m -125.4,-14.75 c 0,58.65 39.47,94.41 80.4,94.41 45.72,0 71.53,-32.82 71.53,-84.08 0,-6.27 -0.35,-12.9 -1.1,-17.34 h -120.95 c 2.21,-37.99 25.43,-62.33 59.73,-62.33 16.97,0 31.37,5.53 44.63,14.01 l 10.7,-19.91 c -15.5,-9.95 -34.66,-18.44 -59.01,-18.44 -47.95,0 -85.93,35.04 -85.93,93.68"
         style="fill:#c0bfb9;fill-opacity:1;fill-rule:nonzero;stroke:none"
         id="path136" /><path
         d="m 3674.47,4257.06 v 226.46 h 30.24 v -228.68 c 0,-9.59 4.07,-13.28 8.49,-13.28 1.85,0 3.31,0 6.63,0.75 l 4.06,-22.87 c -4.06,-1.84 -9.2,-2.95 -17.33,-2.95 -22.85,0 -32.09,14.39 -32.09,40.57"
         style="fill:#c0bfb9;fill-opacity:1;fill-rule:nonzero;stroke:none"
         id="path138" /><path
         d="m 3768.48,4400.16 h 30.24 v -179.24 h -30.24 z m -5.53,56.42 c 0,11.81 9.23,19.56 21.04,19.56 11.8,0 21,-7.75 21,-19.56 0,-11.42 -9.2,-19.54 -21,-19.54 -11.81,0 -21.04,8.12 -21.04,19.54"
         style="fill:#c0bfb9;fill-opacity:1;fill-rule:nonzero;stroke:none"
         id="path140" /><path
         d="m 3864.31,4276.24 v 99.21 h -26.56 v 22.87 l 28.03,1.84 3.7,50.16 h 25.45 v -50.16 h 48.32 v -24.71 h -48.32 v -99.58 c 0,-22.13 7,-34.67 27.64,-34.67 6.28,0 14.4,2.59 20.29,4.8 l 5.92,-22.88 c -9.98,-3.31 -22.14,-6.63 -33.2,-6.63 -38.36,0 -51.27,24.34 -51.27,59.75"
         style="fill:#c0bfb9;fill-opacity:1;fill-rule:nonzero;stroke:none"
         id="path142" /><path
         d="m 3973.41,4175.92 c 21.03,9.22 33.55,25.46 33.19,45 -1.1,-0.37 -2.57,-0.37 -3.67,-0.37 -11.81,0 -21.78,7.37 -21.78,21.01 0,13.28 10.34,21.4 22.5,21.4 15.86,0 25.45,-13.64 25.45,-35.77 0,-31.71 -18.44,-56.44 -48.31,-68.98 l -7.38,17.71"
         style="fill:#c0bfb9;fill-opacity:1;fill-rule:nonzero;stroke:none"
         id="path144" /><path
         d="m 4131.92,4241.2 15.13,20.29 c 15.48,-12.55 31.34,-21.39 52.73,-21.39 23.6,0 35.41,12.54 35.41,28.02 0,18.44 -21.4,26.57 -40.94,33.93 -25.45,9.22 -53.48,21.4 -53.48,51.65 0,28.76 22.86,50.88 61.58,50.88 22.5,0 42.04,-9.22 55.7,-20.27 l -14.38,-19.18 c -12.18,9.22 -25.09,15.85 -40.93,15.85 -22.5,0 -32.84,-12.16 -32.84,-25.81 0,-16.97 19.54,-23.24 39.83,-30.99 25.82,-9.58 54.59,-20.27 54.59,-54.22 0,-29.13 -23.24,-53.47 -65.64,-53.47 -25.46,0 -49.81,10.7 -66.76,24.71"
         style="fill:#c0bfb9;fill-opacity:1;fill-rule:nonzero;stroke:none"
         id="path146" /><path
         d="m 4418.41,4324.92 c 0,36.14 -16.22,55.69 -44.27,55.69 -25.07,0 -47.93,-20.28 -51.63,-55.69 z m -125.4,-14.75 c 0,58.65 39.48,94.41 80.41,94.41 45.72,0 71.53,-32.82 71.53,-84.08 0,-6.27 -0.36,-12.9 -1.11,-17.34 h -120.95 c 2.21,-37.99 25.43,-62.33 59.73,-62.33 16.98,0 31.38,5.53 44.64,14.01 l 10.7,-19.91 c -15.51,-9.95 -34.66,-18.44 -59.01,-18.44 -47.96,0 -85.94,35.04 -85.94,93.68"
         style="fill:#c0bfb9;fill-opacity:1;fill-rule:nonzero;stroke:none"
         id="path148" /><path
         d="m 4602.7,4266.65 v 93.68 c -15.12,13.64 -28.77,18.81 -43.53,18.81 -28.75,0 -51.63,-27.67 -51.63,-68.6 0,-42.79 18.07,-68.61 49.41,-68.61 16.62,0 30.99,8.12 45.75,24.72 z m -126.51,43.52 c 0,58.28 36.9,94.41 77.83,94.41 20.65,0 34.31,-7.73 50.14,-20.65 l -1.46,30.62 v 68.97 h 30.62 v -262.6 h -25.1 l -2.56,21.01 h -1.11 c -14.02,-13.63 -33.2,-25.44 -54.23,-25.44 -45,0 -74.13,33.93 -74.13,93.68"
         style="fill:#c0bfb9;fill-opacity:1;fill-rule:nonzero;stroke:none"
         id="path150" /><path
         d="m 4880.98,4266.65 v 93.68 c -15.11,13.64 -28.77,18.81 -43.5,18.81 -28.77,0 -51.66,-27.67 -51.66,-68.6 0,-42.79 18.08,-68.61 49.42,-68.61 16.61,0 30.99,8.12 45.74,24.72 z m -126.5,43.52 c 0,58.28 36.9,94.41 77.83,94.41 20.65,0 34.3,-7.73 50.14,-20.65 l -1.47,30.62 v 68.97 h 30.63 v -262.6 h -25.1 l -2.57,21.01 h -1.1 c -14.02,-13.63 -33.2,-25.44 -54.23,-25.44 -45,0 -74.13,33.93 -74.13,93.68"
         style="fill:#c0bfb9;fill-opacity:1;fill-rule:nonzero;stroke:none"
         id="path152" /><path
         d="m 4971.95,4400.16 h 30.24 v -179.24 h -30.24 z m -5.52,56.42 c 0,11.81 9.23,19.56 21.03,19.56 11.8,0 21.01,-7.75 21.01,-19.56 0,-11.42 -9.21,-19.54 -21.01,-19.54 -11.8,0 -21.03,8.12 -21.03,19.54"
         style="fill:#c0bfb9;fill-opacity:1;fill-rule:nonzero;stroke:none"
         id="path154" /><path
         d="m 5161.46,4264.8 v 49.8 c -59.73,-7.37 -80.4,-22.14 -80.4,-44.99 0,-20.29 14.01,-28.78 31.72,-28.78 17.33,0 31.35,8.49 48.68,23.97 z m -109.9,2.59 c 0,39.09 33.56,58.64 109.9,67.12 0,22.86 -7.38,45 -36.87,45 -20.65,0 -39.47,-9.59 -53.49,-19.18 l -11.8,21.02 c 16.61,10.7 41.68,23.23 70.45,23.23 43.89,0 62.33,-29.13 62.33,-73.75 v -109.91 h -25.1 l -2.56,21.39 h -1.11 c -16.97,-14.01 -36.87,-25.82 -59.37,-25.82 -29.88,0 -52.38,18.81 -52.38,50.9"
         style="fill:#c0bfb9;fill-opacity:1;fill-rule:nonzero;stroke:none"
         id="path156" /><path
         d="m 5248.39,4400.16 h 25.1 l 2.57,-25.81 h 1.1 c 15.48,16.97 34.31,30.23 55.7,30.23 27.28,0 42.04,-12.9 49.42,-34.3 18.82,20.29 37.25,34.3 59.01,34.3 36.87,0 54.59,-24.34 54.59,-70.07 v -113.59 h -30.24 v 109.53 c 0,33.57 -10.7,47.96 -33.2,47.96 -14.01,0 -28.41,-9.23 -44.99,-27.67 v -129.82 h -30.24 v 109.53 c 0,33.57 -10.7,47.96 -33.58,47.96 -13.27,0 -28.39,-9.23 -45,-27.67 v -129.82 h -30.24 v 179.24"
         style="fill:#c0bfb9;fill-opacity:1;fill-rule:nonzero;stroke:none"
         id="path158" /><path
         d="m 3830.39,3083.11 h -1689.1 c -168.6,0 -306.55,137.94 -306.55,306.55 0,168.59 137.95,306.54 306.55,306.54 h 1689.1 c 168.6,0 306.54,-137.95 306.54,-306.54 0,-168.61 -137.94,-306.55 -306.54,-306.55"
         style="fill:#5da0ef;fill-opacity:1;fill-rule:nonzero;stroke:none"
         id="path160" /><path
         d="m 2312.15,3479.4 h 12.27 v -164.99 h 81.04 v -10.66 h -93.31 v 175.65"
         style="fill:#ffffff;fill-opacity:1;fill-rule:nonzero;stroke:none"
         id="path162" /><path
         d="m 2436.67,3479.4 h 96.24 v -10.66 h -83.98 v -66.37 h 70.38 v -10.66 h -70.38 v -77.3 h 86.63 v -10.66 h -98.89 v 175.65"
         style="fill:#ffffff;fill-opacity:1;fill-rule:nonzero;stroke:none"
         id="path164" /><path
         d="m 2587.07,3374.38 h 62.37 l -11.2,32.79 c -7.2,20.8 -13.34,39.18 -19.45,60.78 h -1.09 c -6.12,-21.6 -12.26,-39.98 -19.44,-60.78 z m 25.04,105.02 h 12.26 l 61.84,-175.65 h -12.79 l -20.52,60.23 h -69.57 l -20.8,-60.23 h -12.26 l 61.84,175.65"
         style="fill:#ffffff;fill-opacity:1;fill-rule:nonzero;stroke:none"
         id="path166" /><path
         d="m 2761.42,3394.64 c 30.91,0 48.24,12.53 48.24,38.38 0,26.39 -17.33,35.98 -48.24,35.98 h -34.92 v -74.36 z m -47.19,84.76 h 50.38 c 34.92,0 57.56,-12.8 57.56,-46.38 0,-27.98 -17.31,-44.24 -45.03,-47.7 l 48.5,-81.57 h -14.13 l -47.69,80.76 h -37.32 v -80.76 h -12.27 v 175.65"
         style="fill:#ffffff;fill-opacity:1;fill-rule:nonzero;stroke:none"
         id="path168" /><path
         d="m 2859.27,3479.4 h 12.79 l 74.1,-123.94 19.73,-34.91 h 1.07 c -0.53,17.06 -1.62,34.11 -1.62,51.17 v 107.68 h 11.75 v -175.65 h -12.81 l -74.1,123.94 -19.71,34.93 h -1.06 c 0.53,-16.8 1.59,-32.8 1.59,-49.86 v -109.01 h -11.73 v 175.65"
         style="fill:#ffffff;fill-opacity:1;fill-rule:nonzero;stroke:none"
         id="path170" /><path
         d="m 3082.15,3479.4 h 17.33 l 36.78,-103.14 c 4.55,-12.8 9.32,-25.87 13.87,-38.93 h 1.06 c 4.52,13.06 8.8,26.13 13.32,38.93 l 36.52,103.14 h 17.59 v -175.65 h -11.98 v 115.42 c 0,14.39 0.78,32.77 1.59,47.43 h -1.06 l -13.59,-39.17 -37.87,-104.48 h -10.66 l -38.11,104.48 -13.85,39.17 h -1.06 c 0.53,-14.66 1.59,-33.04 1.59,-47.43 v -115.42 h -11.47 v 175.65"
         style="fill:#ffffff;fill-opacity:1;fill-rule:nonzero;stroke:none"
         id="path172" /><path
         d="m 3390.87,3392.25 c 0,48.5 -23.73,79.16 -59.44,79.16 -35.71,0 -59.44,-30.66 -59.44,-79.16 0,-48.78 23.73,-80.5 59.44,-80.5 35.71,0 59.44,31.72 59.44,80.5 z m -131.66,0 c 0,55.43 30.12,90.36 72.22,90.36 42.38,0 72.51,-34.93 72.51,-90.36 0,-55.71 -30.13,-91.69 -72.51,-91.69 -42.1,0 -72.22,35.98 -72.22,91.69"
         style="fill:#ffffff;fill-opacity:1;fill-rule:nonzero;stroke:none"
         id="path174" /><path
         d="m 3491.41,3394.64 c 30.93,0 48.24,12.53 48.24,38.38 0,26.39 -17.31,35.98 -48.24,35.98 h -34.93 v -74.36 z m -47.19,84.76 h 50.4 c 34.9,0 57.56,-12.8 57.56,-46.38 0,-27.98 -17.33,-44.24 -45.06,-47.7 l 48.53,-81.57 h -14.13 l -47.72,80.76 h -37.32 v -80.76 h -12.26 v 175.65"
         style="fill:#ffffff;fill-opacity:1;fill-rule:nonzero;stroke:none"
         id="path176" /><path
         d="m 3589.26,3479.4 h 96.23 v -10.66 h -83.98 v -66.37 h 70.39 v -10.66 h -70.39 v -77.3 h 86.64 v -10.66 h -98.89 v 175.65"
         style="fill:#ffffff;fill-opacity:1;fill-rule:nonzero;stroke:none"
         id="path178" /><path
         d="m 14388,2051.41 c -129.5,73.28 -352.7,81.27 -498.6,17.87 -24.9,-10.82 -45.8,-23.05 -62.9,-36.2 -91.7,31.17 -216.5,29.4 -303,-8.16 -102.5,-44.56 -111.9,-122.43 -20.9,-173.92 87.4,-49.49 235.5,-56.48 337.9,-17.41 6,-4.03 12.3,-7.99 19.1,-11.83 129.4,-73.28 352.7,-81.29 498.6,-17.87 145.9,63.4 159.2,174.22 29.8,247.52"
         style="fill:#e3e3df;fill-opacity:1;fill-rule:nonzero;stroke:none"
         id="path180" /><path
         d="m 14108.8,2034.41 1.2,-104.46 c 0.8,-10.97 10.9,-68.87 15.5,-78.86 13.3,-28.91 35.3,-40.7 56.8,-42.37 28.4,-2.22 86,47.51 66.2,110.08 -17.3,54.53 -47.2,129.73 -47.2,129.73 -40.2,-18.03 -63.6,-14.39 -92.5,-14.12"
         style="fill:#264e75;fill-opacity:1;fill-rule:nonzero;stroke:none"
         id="path182" /><path
         d="m 13631,1945.39 140.6,163.96 c 21.7,11.39 62.1,15.72 94.9,9.99 14.8,-2.57 22.6,-12.33 23.5,-27.1 l 3.6,-27.41 c 4.5,-45.93 10.2,-61.05 -18.4,-76.1 l -169.8,-89.35 c -34.9,-27.12 -133.4,-13.58 -74.4,46.01"
         style="fill:#264e75;fill-opacity:1;fill-rule:nonzero;stroke:none"
         id="path184" /><path
         d="m 13777.1,2092.67 c 0,0 -80.3,-97.69 -70,-104.61 42.9,-28.74 144.1,63.79 144.1,63.79 0,0 -55.5,45.76 -74.1,40.82"
         style="fill:#db945a;fill-opacity:1;fill-rule:nonzero;stroke:none"
         id="path186" /><path
         d="m 13852.8,2054.57 c -22,-40.86 -83.4,-14.15 -86.6,29.04 2.8,241.67 -47.1,431.93 -44.7,657.84 2.8,253.66 21.5,257.86 26.3,646.67 l 235.5,-39.55 c -46,-279.23 -67.5,-632.26 -67.5,-632.26 60.1,-271.6 -14.7,-328.95 -63,-661.74"
         style="fill:#db945a;fill-opacity:1;fill-rule:nonzero;stroke:none"
         id="path188" /><path
         d="m 14198.5,2002.89 c -18.2,-42.71 -81.8,-21.73 -88.9,21 -19.3,240.91 -86.4,425.81 -104.6,651 -20.4,252.85 -2.2,258.73 -32.9,646.37 l 238.1,-17.87 c -20.3,-282.27 -9.4,-635.77 -9.4,-635.77 84.6,-264.99 15.4,-328.92 -2.3,-664.73"
         style="fill:#db945a;fill-opacity:1;fill-rule:nonzero;stroke:none"
         id="path190" /><path
         d="m 13746,3706.78 c 0,0 -50,19.85 -33.7,-872.85 0,0 56.1,-52.22 211.2,-93.99 146.3,-39.36 243,132.52 361.3,90.45 0,0 -71.9,171.28 -61.4,251.08 10.5,79.81 63.4,546.3 -67.8,562.62 -131.1,16.32 -409.6,62.69 -409.6,62.69"
         style="fill:#264e75;fill-opacity:1;fill-rule:nonzero;stroke:none"
         id="path192" /><path
         d="m 14284.8,2830.19 c 0,0 -45.1,159.68 -34.6,239.49 10.5,79.8 36.6,557.9 -94.6,574.22 -29.9,3.72 -67.5,9.02 -107.7,14.96 8.5,-77.79 25.8,-205.32 60.2,-413.92 45.8,-278.11 -46.5,-430.59 -136.6,-510.95 120.5,2.75 214.7,-1.8 313.3,96.2"
         style="fill:#223a6b;fill-opacity:1;fill-rule:nonzero;stroke:none"
         id="path194" /><path
         d="m 13934.2,4691.62 181.1,-157.95 c 0,0 0.5,-126.76 98.7,-181.14 98.1,-54.39 178.8,-85.99 170.4,-250.01 -8.5,-164.03 231.7,-164.23 138.1,-323.7 -93.6,-159.48 -430.4,-130.16 -519.3,-13.22 -88.9,116.93 -226.3,475.49 -179.3,579.38 47.1,103.89 110.3,346.64 110.3,346.64"
         style="fill:#223a6b;fill-opacity:1;fill-rule:nonzero;stroke:none"
         id="path196" /><path
         d="m 12900.9,4185.28 v 0 c -28.7,-15.77 -41.9,-47.38 -29.1,-70.23 l 41.8,-44.6 c 12.8,-22.89 32.9,-34.2 61.7,-18.4 v 0.01 c 28.8,15.77 44.5,-4.01 29.9,45.03 l -37.6,63.79 c -4.8,8.3 -10.8,15.97 -18.2,22.25 -13.7,11.66 -25.8,14.57 -48.5,2.15"
         style="fill:#db945a;fill-opacity:1;fill-rule:nonzero;stroke:none"
         id="path198" /><path
         d="m 13752.7,4131.11 c 0,0 -4,209.35 110.7,208.92 16,-0.06 42.4,15.4 60.8,14.94 95.8,-2.39 82.3,-3.25 152.3,-28.34 26.4,-9.45 44.8,-84.67 41.2,-113.07 l 44.4,-83.89 -409.4,1.44"
         style="fill:#db945a;fill-opacity:1;fill-rule:nonzero;stroke:none"
         id="path200" /><path
         d="m 13823.9,4344.98 c 18.7,3.05 43.2,8.37 40.9,-2.58 -9.9,-48.04 142.3,-54.46 152,-12.46 1.6,7.15 29,13.32 36.1,9.14 l 38.1,-14.21 c 205.5,-56.4 157.6,-113.4 110.3,-223.85 0,0 -56.1,-193.74 -56.2,-272.71 -0.1,-68.28 64.1,-171.97 76.3,-193.49 15.9,-27.9 -70.6,-207.75 -334.4,-185.11 -207.8,17.83 -186.7,103.86 -185.6,216.83 0.7,71.1 38.7,261.76 36,318 -2.6,56.23 -46.9,97.18 -19.4,188.43 27.4,91.25 -11.7,139.51 -11.7,139.51 l 117.6,32.5"
         style="fill:#79a347;fill-opacity:1;fill-rule:nonzero;stroke:none"
         id="path202" /><path
         d="m 13948.6,4291.56 -7.6,9.62 c -22.7,-3.27 -42,1.75 -44,24.08 l -11.2,125.91 c -2,22.34 15,43.28 37.7,46.54 l 6.7,0.97 c 22.7,3.27 56.8,-5.64 58.7,-27.98 l 17.5,-133.46 c 2,-22.33 -35.1,-42.42 -57.8,-45.68"
         style="fill:#db945a;fill-opacity:1;fill-rule:nonzero;stroke:none"
         id="path204" /><path
         d="m 13892.4,4383.79 c 0,0 54.2,-1.78 93.2,49.45 0,0 -41,-77.27 -91,-83.46 l -2.2,34.01"
         style="fill:#cc7127;fill-opacity:1;fill-rule:nonzero;stroke:none"
         id="path206" /><path
         d="m 13793.7,4574.3 c 0,0 -34.8,-131.4 39.7,-166.03 74.5,-34.63 114.7,236.07 114.7,236.07 l -154.4,-70.04"
         style="fill:#223a6b;fill-opacity:1;fill-rule:nonzero;stroke:none"
         id="path208" /><path
         d="m 14025.9,4630.11 c -16.9,35.36 -46.4,44.5 -76,28.46 -26.3,14.66 -60.8,1.18 -89,-39.57 -39.1,-56.73 -56.4,-151.53 -31.9,-203.11 10.7,-22.52 30.4,-29.26 49.3,-31.75 17.6,-2.32 35.9,-0.73 53.5,3.87 63.1,16.47 63.4,7.31 89.5,45.1 39.1,56.74 29.1,145.41 4.6,197"
         style="fill:#db945a;fill-opacity:1;fill-rule:nonzero;stroke:none"
         id="path210" /><path
         d="m 13985,4612.68 c 17.9,-60.76 11.4,-196.48 13.4,-214.7 0,0 123.7,-4.84 116.9,135.69 -8.4,174.93 -113.2,94.02 -113.2,94.02 l -17.1,-15.01"
         style="fill:#223a6b;fill-opacity:1;fill-rule:nonzero;stroke:none"
         id="path212" /><path
         d="m 14025.4,4585.96 c -65.4,32.45 -119.5,58.27 -229.9,-22.08 -6.8,15.35 17,63.55 39.9,78.08 47.9,30.35 72.2,46.86 122.4,54.28 l 12.1,0.49 c 72.9,2.96 109.3,-27.48 119.9,-98.2 1,-6.22 11.4,-35.03 11.4,-40.21 l -22.6,9.37 c 0.4,-41.41 -11.3,21.1 -53.2,18.27"
         style="fill:#223a6b;fill-opacity:1;fill-rule:nonzero;stroke:none"
         id="path214" /><path
         d="m 14047,4463.1 c -0.2,-19.51 -16.1,-35.19 -35.7,-35.02 -19.5,0.15 -35.2,16.11 -35,35.62 0.2,19.51 16.1,35.2 35.6,35.03 19.5,-0.17 35.2,-16.11 35.1,-35.63"
         style="fill:#db945a;fill-opacity:1;fill-rule:nonzero;stroke:none"
         id="path216" /><path
         d="m 14223.3,3632.65 c -12.3,21.51 -76.4,125.21 -76.3,193.48 0,44.71 18,126.17 33.6,188.47 -60,-128.69 -59.7,-173.4 -137.2,-191.07 132.2,-186.16 48.8,-333.31 -69.9,-376.16 197.8,17.31 263.8,160.61 249.8,185.28"
         style="fill:#6c913f;fill-opacity:1;fill-rule:nonzero;stroke:none"
         id="path218" /><path
         d="m 13893.5,4366.3 -47.8,-14.68 c 0,0 -13.3,-65.56 18.5,-88.2 l 51.3,38.41 c 0,0 -23.5,30.23 -22,64.47"
         style="fill:#ffffff;fill-opacity:1;fill-rule:nonzero;stroke:none"
         id="path220" /><path
         d="m 13915.5,4301.83 37.4,-50.96 c 0,0 93.4,38.46 90.2,100.66 l -40.9,17.98 c 0,0 -42.9,-69.43 -86.7,-67.68"
         style="fill:#ffffff;fill-opacity:1;fill-rule:nonzero;stroke:none"
         id="path222" /><path
         d="m 14112.2,2014.73 c 0,0 18,-112.55 65.2,-103.46 47.2,9.09 17.5,119.48 17.5,119.48 l -82.7,-16.02"
         style="fill:#db945a;fill-opacity:1;fill-rule:nonzero;stroke:none"
         id="path224" /><path
         d="m 13845.5,3250.51 -40.5,-17.73 c -158,-69.18 -343.9,3.49 -413,161.48 l -373.1,851.98 c -69.2,157.99 3.5,343.86 161.5,413.04 l 40.5,17.72 c 157.9,69.18 343.8,-3.48 413,-161.47 l 373,-851.99 c 69.2,-157.98 -3.4,-343.85 -161.4,-413.03"
         style="fill:#c2c2bf;fill-opacity:1;fill-rule:nonzero;stroke:none"
         id="path226" /><path
         d="m 13743.3,3197.9 -40.5,-17.72 c -157.9,-69.18 -343.8,3.48 -413,161.47 l -373.1,851.98 c -69.1,157.99 3.5,343.85 161.5,413.03 l 40.5,17.73 c 158,69.18 343.9,-3.48 413,-161.47 l 373.1,-851.98 c 69.2,-157.99 -3.5,-343.86 -161.5,-413.04"
         style="fill:#d1d1ce;fill-opacity:1;fill-rule:nonzero;stroke:none"
         id="path228" /><path
         d="m 13743.3,3197.9 -2,4.58 -40.5,-17.72 c -39.9,-17.5 -81.7,-25.77 -122.8,-25.78 -119.1,0.01 -233,69.19 -283.6,184.68 l -373.1,851.98 c -17.5,39.96 -25.7,81.71 -25.7,122.88 0,119.01 69.1,233 184.6,283.56 l 40.5,17.73 c 40,17.5 81.7,25.78 122.9,25.78 119,-0.01 233,-69.18 283.6,-184.68 l 373,-851.98 c 17.5,-39.96 25.8,-81.71 25.8,-122.88 0,-119.02 -69.2,-233.01 -184.7,-283.57 l 2,-4.58 2,-4.58 c 119.3,52.24 190.7,169.88 190.7,292.73 0,42.5 -8.6,85.64 -26.6,126.89 l -373.1,851.98 c -52.2,119.28 -169.8,190.67 -292.7,190.67 -42.5,0 -85.6,-8.55 -126.9,-26.62 l -40.5,-17.73 c -119.3,-52.24 -190.6,-169.87 -190.6,-292.72 0,-42.51 8.5,-85.65 26.6,-126.89 l 373,-851.99 c 52.3,-119.27 169.9,-190.66 292.8,-190.65 42.5,-0.01 85.6,8.54 126.8,26.61 l 40.5,17.72 -2,4.58"
         style="fill:#223a6b;fill-opacity:1;fill-rule:nonzero;stroke:none"
         id="path230" /><path
         d="m 13631.1,3604.56 c 19.1,-43.69 -0.8,-94.61 -44.5,-113.74 -43.6,-19.13 -94.6,0.77 -113.7,44.46 -19.1,43.69 0.8,94.61 44.5,113.74 43.6,19.13 94.6,-0.77 113.7,-44.46"
         style="fill:#db945a;fill-opacity:1;fill-rule:nonzero;stroke:none"
         id="path232" /><path
         d="m 13793,3722.53 c -31.1,71.1 -92.4,119.45 -162.3,137.11 l -220.6,503.87 c -32.6,74.51 -120.3,108.77 -194.8,76.15 -74.5,-32.63 -108.8,-120.29 -76.1,-194.8 l 220.6,-503.85 c -34.4,-63.31 -40.4,-141.15 -9.3,-212.25 53.5,-122.2 195.9,-177.88 318.1,-124.38 122.2,53.51 177.9,195.95 124.4,318.15"
         style="fill:#c2c2bf;fill-opacity:1;fill-rule:nonzero;stroke:none"
         id="path234" /><path
         d="m 13781.1,3718.38 v 0 c 1.7,-21.09 19.8,-38.05 40.2,-37.7 l 70.9,1.2 c 20.4,0.36 35.7,17.86 34,38.91 -1.7,21.08 -19.7,38.05 -40.1,37.7 l -71,-1.21 c -20.4,-0.35 -35.7,-17.86 -34,-38.9"
         style="fill:#db945a;fill-opacity:1;fill-rule:nonzero;stroke:none"
         id="path236" /><path
         d="m 14235.1,4248.49 c 0,0 175.4,-394.34 110,-533.05 -65.5,-138.72 -439.1,-43.92 -439.1,-43.92 l 0.8,95.68 285.6,36.73 -50.5,339.79 93.2,104.77"
         style="fill:#79a347;fill-opacity:1;fill-rule:nonzero;stroke:none"
         id="path238" /><path
         d="m 13517.6,3578.49 v 0 c -74.5,-32.63 -162.2,1.64 -194.8,76.15 l -242.4,553.62 c -32.7,74.5 1.6,162.16 76.1,194.79 74.5,32.62 162.2,-1.64 194.8,-76.16 l 242.4,-553.61 c 32.6,-74.51 -1.6,-162.17 -76.1,-194.79"
         style="fill:#ffffff;fill-opacity:1;fill-rule:nonzero;stroke:none"
         id="path240" /><path
         d="m 13734.2,3685.93 c 53.5,-122.21 -2.2,-264.64 -124.4,-318.16 -122.2,-53.5 -264.6,2.18 -318.1,124.39 -53.5,122.19 2.2,264.64 124.4,318.14 122.2,53.51 264.6,-2.18 318.1,-124.37"
         style="fill:#ffffff;fill-opacity:1;fill-rule:nonzero;stroke:none"
         id="path242" /><path
         d="m 13530.1,3549.94 v 0 c -30.6,-13.4 -66.3,0.55 -79.7,31.14 l -288.4,658.63 c -13.4,30.6 0.6,66.27 31.2,79.66 30.6,13.4 66.2,-0.54 79.6,-31.14 l 288.4,-658.62 c 13.4,-30.61 -0.5,-66.27 -31.1,-79.67"
         style="fill:#e69f58;fill-opacity:1;fill-rule:nonzero;stroke:none"
         id="path244" /><path
         d="m 13233.1,4166.86 -65.8,-28.77 c -10,-4.39 -21.7,0.17 -26,10.2 -4.4,10.02 0.1,21.7 10.1,26.09 l 65.8,28.77 c 10,4.4 21.7,-0.17 26.1,-10.19 4.4,-10.02 -0.2,-21.71 -10.2,-26.1"
         style="fill:#264e75;fill-opacity:1;fill-rule:nonzero;stroke:none"
         id="path246" /><path
         d="m 13288.5,4040.38 -65.8,-28.85 c -10,-4.36 -21.6,0.18 -26,10.16 -4.4,9.98 0.2,21.61 10.1,25.98 l 65.9,28.84 c 10,4.38 21.6,-0.17 26,-10.15 4.4,-9.97 -0.2,-21.6 -10.2,-25.98"
         style="fill:#264e75;fill-opacity:1;fill-rule:nonzero;stroke:none"
         id="path248" /><path
         d="m 13344.4,3917.87 -69.5,-30.34 c -9.1,-3.93 -19.6,0.18 -23.5,9.2 -4,9.02 0.2,19.54 9.2,23.48 l 69.5,30.34 c 9,3.93 19.5,-0.18 23.5,-9.2 3.9,-9.03 -0.2,-19.54 -9.2,-23.48"
         style="fill:#264e75;fill-opacity:1;fill-rule:nonzero;stroke:none"
         id="path250" /><path
         d="m 13399.4,3788.5 -66.8,-29.39 c -9.7,-4.24 -21,0.16 -25.2,9.82 -4.3,9.65 0.1,20.91 9.8,25.15 l 66.8,29.39 c 9.7,4.24 21,-0.15 25.2,-9.82 4.2,-9.66 -0.1,-20.92 -9.8,-25.15"
         style="fill:#264e75;fill-opacity:1;fill-rule:nonzero;stroke:none"
         id="path252" /><path
         d="m 13645.1,3655.25 c 32.7,-74.69 -1.3,-161.75 -76,-194.46 -74.7,-32.7 -161.7,1.33 -194.5,76.03 -32.7,74.68 1.4,161.75 76.1,194.46 74.7,32.7 161.7,-1.33 194.4,-76.03"
         style="fill:#e69f58;fill-opacity:1;fill-rule:nonzero;stroke:none"
         id="path254" /><path
         d="m 8061.25,4306.88 227.95,-311.68 331.88,-367.42 -131.54,-52.42 -456.55,385.94 28.26,345.58"
         style="fill:#e69f58;fill-opacity:1;fill-rule:nonzero;stroke:none"
         id="path256" /><path
         d="m 8687.72,3474.49 v 0 c 11.41,-21.41 3.23,-48.26 -18.19,-59.66 l -74.42,-39.62 c -21.4,-11.38 -48.22,-3.21 -59.62,18.18 h -0.01 c -11.42,21.41 -3.23,48.26 18.19,59.67 l 74.43,39.61 c 21.39,11.38 48.22,3.21 59.62,-18.18"
         style="fill:#db945a;fill-opacity:1;fill-rule:nonzero;stroke:none"
         id="path258" /><path
         d="m 7341.5,1931.53 c 105.29,58.38 282.5,64.54 402.03,15.19 10.44,24.44 33.39,47.91 69.26,67.79 108.44,60.13 293.17,64.88 412.6,10.63 119.43,-54.26 128.33,-146.99 19.89,-207.1 -105.3,-58.38 -282.51,-64.55 -402.03,-15.19 -10.44,-24.45 -33.39,-47.91 -69.26,-67.8 -108.45,-60.12 -293.17,-64.87 -412.6,-10.62 -119.44,54.26 -128.34,146.99 -19.89,207.1"
         style="fill:#e3e3df;fill-opacity:1;fill-rule:nonzero;stroke:none"
         id="path260" /><path
         d="m 7687.95,4448.03 c 0,0 -96.18,-25.83 -98.19,-68.83 -2,-43 4.74,-83.26 4.74,-83.26 l 300.61,37.95 -25.16,118.4 -182,-4.26"
         style="fill:#27427a;fill-opacity:1;fill-rule:nonzero;stroke:none"
         id="path262" /><path
         d="m 8165.38,1973.21 -162.46,108.77 c -24.28,7.56 -53.32,8.81 -86.42,-1.29 -14.86,-4.53 -17.76,6.61 -16.33,-7.36 l -13.27,-59.48 c -13.15,-39.86 18.55,-63.4 64.06,-76.61 l 154.63,-42.38 c 32.05,-9.98 76.98,-3.66 99.86,14.05 l 6.48,5.01 c 22.88,17.7 -12.22,41.2 -46.55,59.29"
         style="fill:#27427a;fill-opacity:1;fill-rule:nonzero;stroke:none"
         id="path264" /><path
         d="m 7901.07,2062.5 c 3.13,-45.97 114.93,-38.37 111.8,7.6 l -10.15,149.38 -111.81,-7.61 10.16,-149.37"
         style="fill:#db945a;fill-opacity:1;fill-rule:nonzero;stroke:none"
         id="path266" /><path
         d="m 7882.38,2119.17 c 47.43,-34.46 94.25,-32.48 140.46,5.27 0,0 68.37,925.29 36.97,1399.77 l -353.85,106.2 c 47.45,-290.63 148.74,-767.58 148.74,-767.58 -99.59,-240.75 -4.13,-536.23 27.68,-743.66"
         style="fill:#27427a;fill-opacity:1;fill-rule:nonzero;stroke:none"
         id="path268" /><path
         d="m 7705.96,3630.41 99.23,-29.79 c 29,-172.16 73.68,-397.18 105.49,-553.02 20.74,-101.55 20.14,-205.73 3.39,-308 -34.8,-212.52 35.91,-446.53 62.42,-619.39 7.02,-5.1 14.02,-9.3 21.02,-12.81 -37.97,-20.19 -76.35,-16.41 -115.14,11.77 -28.26,184.38 -106.83,438.34 -53.99,661.58 15.74,66.53 14.94,135.89 1.12,202.85 -33.16,160.66 -91,447.53 -123.54,646.81"
         style="fill:#223a6b;fill-opacity:1;fill-rule:nonzero;stroke:none"
         id="path270" /><path
         d="m 7503.35,1978.65 c -4.23,-45.88 107.36,-56.17 111.59,-10.29 l 13.74,149.09 -111.59,10.29 -13.74,-149.09"
         style="fill:#db945a;fill-opacity:1;fill-rule:nonzero;stroke:none"
         id="path272" /><path
         d="m 7494.33,2034.49 c 48.42,-38.62 95.1,-44.92 139.82,-14.38 0,0 36.6,307.45 95.84,635.14 45.86,253.63 115.12,508.65 129.45,710.28 l -329.71,187.32 c 4.87,-179.02 -4.1,-573.31 -8.4,-742.47 -1.01,-39.52 -10.53,-78.16 -27.41,-113.92 -73.55,-155.73 0.41,-661.97 0.41,-661.97"
         style="fill:#27427a;fill-opacity:1;fill-rule:nonzero;stroke:none"
         id="path274" /><path
         d="m 8087.41,3538.15 c -13.05,162.86 -17.57,398.7 -9.58,603.54 2.45,200.55 -36.87,321.34 -308.82,297.63 l -71.56,-25.29 C 7493.05,4281.84 7434.23,4320 7440.43,4055.9 l 56.6,-535.66 c 20.46,-255.1 628.03,-280.9 590.38,17.91"
         style="fill:#e69f58;fill-opacity:1;fill-rule:nonzero;stroke:none"
         id="path276" /><path
         d="m 7440.43,4055.9 56.6,-535.66 c 11.93,-148.76 223.52,-219.55 390.38,-193.45 -198.95,96.96 -338.54,367.51 -446.98,729.11"
         style="fill:#d68431;fill-opacity:1;fill-rule:nonzero;stroke:none"
         id="path278" /><path
         d="m 7606.46,4365.84 c 0,0 -9.46,-74.69 107.43,-136.99 60.3,-32.14 91.54,-86.58 107.64,-131.76 9.41,-26.38 25.26,-13.22 27.41,14.63 5.57,72.47 7.52,93.48 21.67,147.15 22.9,86.79 -20.96,215.02 -25.96,215.94 -5.01,0.93 -238.19,-108.97 -238.19,-108.97"
         style="fill:#ffffff;fill-opacity:1;fill-rule:nonzero;stroke:none"
         id="path280" /><path
         d="m 7762.35,4422.34 c 0,0 111.14,-32.16 89.9,-130.31 l 2.27,-116.01 c 0,0 79.71,132.19 35.06,254.91 -44.65,122.71 -127.23,-8.59 -127.23,-8.59"
         style="fill:#27427a;fill-opacity:1;fill-rule:nonzero;stroke:none"
         id="path282" /><path
         d="m 7805.83,4431.09 c 0,0 -18.81,-31.59 -31.08,-38.2 -12.28,-6.6 -186.73,65.39 -173.6,207.99 8.31,90.32 179.66,72.3 179.66,72.3 l 25.02,-242.09"
         style="fill:#27427a;fill-opacity:1;fill-rule:nonzero;stroke:none"
         id="path284" /><path
         d="m 7736.12,4298.71 8.57,-1.12 c 28.94,-3.81 55.74,16.76 59.54,45.7 l 21.44,163.19 c 3.8,28.95 -16.77,55.74 -45.71,59.54 l -8.57,1.13 c -28.94,3.8 -55.73,-16.77 -59.54,-45.72 l -43.65,-153.77 c -3.8,-28.95 38.98,-65.15 67.92,-68.95"
         style="fill:#db945a;fill-opacity:1;fill-rule:nonzero;stroke:none"
         id="path286" /><path
         d="m 7814.09,4418.38 c 0,0 -69.62,-4.13 -117.53,60.9 0,0 47.67,-100.21 111.53,-106.54 l 6,45.64"
         style="fill:#cc7127;fill-opacity:1;fill-rule:nonzero;stroke:none"
         id="path288" /><path
         d="m 7659.27,4434.62 c 0,0 -73.6,-90.64 69.38,-160.49 0,0 56.34,-53.15 59.54,-111.73 0,0 -48.37,35.04 -76.34,54.1 -27.96,19.08 -235.96,137.94 -52.58,218.12"
         style="fill:#27427a;fill-opacity:1;fill-rule:nonzero;stroke:none"
         id="path290" /><path
         d="m 7768.76,4475.47 c 36.16,-67.18 93.81,-75.74 128.79,-19.13 34.96,56.6 33.99,156.94 -2.16,224.11 -36.16,67.17 -93.82,75.73 -128.79,19.13 -34.96,-56.6 -34,-156.94 2.16,-224.11"
         style="fill:#db945a;fill-opacity:1;fill-rule:nonzero;stroke:none"
         id="path292" /><path
         d="m 7688.3,4481.77 c 36.15,-67.17 164.25,-95.79 199.23,-39.19 34.96,56.6 -11.65,176.37 -47.82,243.54 -36.15,67.17 -93.81,75.74 -128.78,19.13 -34.97,-56.6 -58.79,-156.31 -22.63,-223.48"
         style="fill:#db945a;fill-opacity:1;fill-rule:nonzero;stroke:none"
         id="path294" /><path
         d="m 7749.07,4663.1 c 0,0 32.85,-137.61 -73.92,-182.34 0,0 -133.45,56.88 -58.21,202.35 66.32,128.23 206.65,53.85 206.65,53.85 l -74.52,-73.86"
         style="fill:#27427a;fill-opacity:1;fill-rule:nonzero;stroke:none"
         id="path296" /><path
         d="m 7921.68,4588.63 c 0,0 -22.06,58.02 -97.88,74.47 l 53.21,41.22 c 0,0 60.27,-6.27 44.67,-115.69"
         style="fill:#27427a;fill-opacity:1;fill-rule:nonzero;stroke:none"
         id="path298" /><path
         d="m 7701.19,4574.1 c 20.29,35.6 72.17,41.52 149.11,23.92 11.71,-2.68 24.05,-3.12 35.43,0.71 53.44,17.95 53.46,86.93 53.46,86.93 6.31,46.89 -26.26,63.76 -73.14,70.08 l -122.1,16.45 c -69.12,9.68 -127.33,-53.24 -133.64,-100.12 l -2.2,-7.85 c -6.31,-46.89 46.19,-83.8 93.08,-90.12"
         style="fill:#27427a;fill-opacity:1;fill-rule:nonzero;stroke:none"
         id="path300" /><path
         d="m 7662.22,4483.57 c 8.8,-16.33 29.16,-22.44 45.5,-13.65 16.33,8.79 22.44,29.16 13.65,45.49 -8.8,16.33 -29.16,22.44 -45.49,13.65 -16.33,-8.79 -22.45,-29.16 -13.66,-45.49"
         style="fill:#db945a;fill-opacity:1;fill-rule:nonzero;stroke:none"
         id="path302" /><path
         d="m 7615.39,1974.69 -6.89,-94.87 c -0.81,-11.2 -11.06,-70.34 -15.72,-80.55 -13.46,-29.55 -36,-41.62 -57.86,-43.36 -29,-2.31 -87.9,48.38 -67.8,112.29 17.51,55.72 36.49,114.44 36.49,114.44 41.15,-18.35 79.26,-24.45 111.78,-7.95"
         style="fill:#27427a;fill-opacity:1;fill-rule:nonzero;stroke:none"
         id="path304" /><path
         d="m 7851.15,4448.5 v 0 c 14.97,4.87 28.2,27.65 29.55,50.88 l -54.21,-17.65 c -1.35,-23.23 9.69,-38.11 24.66,-33.23"
         style="fill:#ffffff;fill-opacity:1;fill-rule:nonzero;stroke:none"
         id="path306" /><path
         d="m 7846.68,3795.28 c -2.22,0.56 -41.13,11.62 -93.45,11.7 -37.12,-0.07 -81.58,-5.54 -124.12,-27.11 -21.19,-10.78 -41.73,-25.75 -59.46,-45.68 -17.75,-19.9 -32.54,-44.65 -42.95,-74.04 -8.26,-23.26 -12.26,-45.96 -12.25,-67.56 -0.02,-20.87 3.74,-40.61 10.26,-58.48 11.43,-31.37 30.82,-56.69 52.12,-76.91 32.1,-30.32 68.88,-50.13 97.89,-63.15 29.03,-12.93 50.45,-18.82 51.85,-19.21 21.31,-5.82 43.3,6.74 49.12,28.05 5.82,21.31 -6.73,43.3 -28.04,49.12 l -3.61,-13.2 3.67,13.19 -0.07,0.01 -3.6,-13.2 3.67,13.19 c -0.58,0.06 -43.33,12.42 -82.55,37.6 -19.65,12.49 -38.15,28.05 -50.77,45.26 -6.34,8.61 -11.28,17.59 -14.66,27.04 -3.37,9.47 -5.27,19.43 -5.28,30.69 0.01,11.83 2.12,25.21 7.65,40.81 7.27,20.43 16.66,35.61 27.29,47.59 15.95,17.85 35.22,29.04 56.88,36.23 21.56,7.14 45.26,9.78 66.96,9.76 20.35,0 38.86,-2.26 51.96,-4.52 6.55,-1.13 11.75,-2.24 15.18,-3.04 1.71,-0.4 2.98,-0.72 3.76,-0.92 l 0.78,-0.2 0.04,0.16 -0.04,-0.16 v 0 l 0.04,0.16 -0.04,-0.16 c 21.25,-6.02 43.36,6.34 49.37,27.6 6.01,21.26 -6.34,43.36 -27.6,49.38"
         style="fill:#91918f;fill-opacity:1;fill-rule:nonzero;stroke:none"
         id="path308" /><path
         d="m 8460.7,3706.34 566,106.71 32.63,-146.18 -659.46,-338.36 60.83,377.83"
         style="fill:#d1d1ce;fill-opacity:1;fill-rule:nonzero;stroke:none"
         id="path310" /><path
         d="m 7664.11,3308.03 c 0.86,4.84 2.69,9.43 5.29,13.82 l 224.77,587.54 627.13,-111.15 9.15,-629.01 c 0.93,-5.01 1.07,-9.95 0.22,-14.79 -12.55,-70.81 -216.71,-93.83 -456,-51.41 -239.3,42.41 -423.11,134.2 -410.56,205"
         style="fill:#d1d1ce;fill-opacity:1;fill-rule:nonzero;stroke:none"
         id="path312" /><path
         d="m 7664.11,3308.03 c 0.86,4.84 2.69,9.43 5.29,13.82 l 224.77,587.54 c -23.21,-305.11 -10.99,-594.78 180.5,-806.36 -239.3,42.41 -423.11,134.2 -410.56,205"
         style="fill:#c2c2bf;fill-opacity:1;fill-rule:nonzero;stroke:none"
         id="path314" /><path
         d="m 8521.3,3798.24 c -9.08,-51.24 -156.83,-67.9 -330.01,-37.21 -173.17,30.7 -306.2,97.12 -297.12,148.36 9.08,51.25 156.84,67.9 330.01,37.21 173.18,-30.69 306.2,-97.12 297.12,-148.36"
         style="fill:#dbdbd8;fill-opacity:1;fill-rule:nonzero;stroke:none"
         id="path316" /><path
         d="m 8521.3,3798.24 -4.92,0.87 c -1.23,-6.91 -5.55,-13.35 -13.44,-19.38 -11.78,-9.03 -31.37,-16.49 -56.75,-21.46 -25.39,-4.99 -56.56,-7.62 -91.68,-7.62 -48.17,0 -103.8,4.93 -162.35,15.31 -83.4,14.77 -157.44,37.91 -210.32,63.46 -26.43,12.75 -47.56,26.14 -61.81,39.14 -7.14,6.49 -12.53,12.87 -16.07,18.91 -3.55,6.06 -5.23,11.69 -5.23,16.91 0,1.4 0.12,2.78 0.36,4.14 1.24,6.92 5.55,13.36 13.44,19.39 11.78,9.03 31.36,16.49 56.74,21.46 25.39,5 56.56,7.62 91.67,7.62 48.18,0 103.81,-4.93 162.37,-15.31 83.4,-14.78 157.45,-37.91 210.32,-63.46 26.43,-12.76 47.56,-26.14 61.81,-39.14 7.13,-6.49 12.53,-12.88 16.07,-18.92 3.55,-6.05 5.23,-11.68 5.23,-16.9 0,-1.4 -0.12,-2.78 -0.36,-4.15 l 4.92,-0.87 4.92,-0.87 c 0.35,1.95 0.52,3.92 0.52,5.89 0,7.4 -2.39,14.78 -6.6,21.96 -7.41,12.58 -20.38,24.82 -37.9,36.84 -52.53,35.94 -146.68,69.84 -257.19,89.46 -59.09,10.48 -115.25,15.47 -164.11,15.47 -47.5,-0.01 -88.06,-4.69 -117.97,-13.83 -14.95,-4.58 -27.27,-10.26 -36.51,-17.29 -9.2,-7 -15.45,-15.6 -17.21,-25.6 -0.35,-1.95 -0.52,-3.92 -0.52,-5.89 0,-7.4 2.39,-14.78 6.6,-21.97 7.41,-12.57 20.38,-24.81 37.9,-36.84 52.54,-35.93 146.69,-69.84 257.19,-89.46 59.09,-10.47 115.24,-15.46 164.09,-15.46 47.51,0.01 88.08,4.69 117.98,13.83 14.96,4.58 27.28,10.26 36.51,17.29 9.21,7 15.46,15.6 17.22,25.6 l -4.92,0.87"
         style="fill:#223a6b;fill-opacity:1;fill-rule:nonzero;stroke:none"
         id="path318" /><path
         d="m 8451.86,3818.17 c -6.01,-32.88 -117.88,-41.14 -249.88,-18.45 -131.99,22.69 -234.11,67.74 -228.11,100.62 6.01,32.88 117.88,41.13 249.87,18.45 131.99,-22.69 234.12,-67.74 228.12,-100.62"
         style="fill:#c2c2bf;fill-opacity:1;fill-rule:nonzero;stroke:none"
         id="path320" /><path
         d="m 7605.81,3527.07 v -0.01 c -14.39,-19.74 -42.43,-25.55 -62.31,-12.89 l -69.08,43.95 c -19.86,12.64 -24.34,39.11 -9.97,58.83 v 0 c 14.39,19.75 42.43,25.55 62.31,12.9 l 69.09,-43.96 c 19.85,-12.64 24.33,-39.1 9.96,-58.82"
         style="fill:#db945a;fill-opacity:1;fill-rule:nonzero;stroke:none"
         id="path322" /><path
         d="m 7490.3,4286.05 c 0,0 -427.43,-305.43 -429.26,-482.44 -1.84,-177.01 424.38,-268.43 424.38,-268.43 l 48.19,101.67 -242.53,190.96 260.96,248.36 -61.74,209.88"
         style="fill:#e69f58;fill-opacity:1;fill-rule:nonzero;stroke:none"
         id="path324" /><path
         d="m 8430.91,3799.08 c -39.15,-15.95 -128.15,-16.69 -228.93,0.64 -108.63,18.68 -196.97,52.49 -221.51,82.2 259.85,20.75 418.02,-60.88 450.44,-82.84"
         style="fill:#5da1f0;fill-opacity:1;fill-rule:nonzero;stroke:none"
         id="path326" /><path
         d="m 9020.93,3903.59 -106.23,-111.66 27.12,-185.35 141.15,-39.83 -62.04,336.84"
         style="fill:#d1d1ce;fill-opacity:1;fill-rule:nonzero;stroke:none"
         id="path328" /><path
         d="m 9098.99,3566.24 c -50.77,-6.8 -102.5,66.68 -115.56,164.12 -13.06,97.44 17.51,181.94 68.28,188.74 50.76,6.81 102.5,-66.67 115.56,-164.11 13.05,-97.44 -17.51,-181.94 -68.28,-188.75"
         style="fill:#a6a6a3;fill-opacity:1;fill-rule:nonzero;stroke:none"
         id="path330" /><path
         d="m 9077.91,3644.35 c 0.65,-12.05 9.6,-21.35 20,-20.8 10.4,0.56 18.31,10.78 17.67,22.82 -0.65,12.04 -9.6,21.35 -20,20.8 -10.4,-0.56 -18.31,-10.77 -17.67,-22.82"
         style="fill:#91918f;fill-opacity:1;fill-rule:nonzero;stroke:none"
         id="path332" /><path
         d="m 9056.51,3825.14 c 0.65,-12.04 9.6,-21.36 20,-20.8 10.41,0.55 18.32,10.77 17.67,22.81 -0.64,12.05 -9.6,21.36 -20,20.8 -10.4,-0.56 -18.31,-10.77 -17.67,-22.81"
         style="fill:#91918f;fill-opacity:1;fill-rule:nonzero;stroke:none"
         id="path334" /><path
         d="m 9108.68,3741.66 c 0.65,-12.04 9.6,-21.35 20,-20.79 10.4,0.56 18.31,10.77 17.67,22.81 -0.65,12.04 -9.6,21.36 -20,20.8 -10.4,-0.55 -18.31,-10.77 -17.67,-22.82"
         style="fill:#91918f;fill-opacity:1;fill-rule:nonzero;stroke:none"
         id="path336" /><path
         d="m 9016.7,3731.7 c 0.64,-12.04 9.6,-21.35 20,-20.79 10.4,0.55 18.31,10.77 17.67,22.81 -0.65,12.04 -9.6,21.36 -20,20.8 -10.4,-0.56 -18.31,-10.77 -17.67,-22.82"
         style="fill:#91918f;fill-opacity:1;fill-rule:nonzero;stroke:none"
         id="path338" /><path
         d="m 8482.44,3346.66 -0.11,0.09 c -1.62,1.32 -19.48,16.33 -36.97,43.43 -17.5,27.13 -34.63,66.16 -35.49,116.2 l -0.02,2.61 c -0.1,50.11 24.79,99.63 50.26,136.36 12.69,18.37 25.43,33.53 34.96,44.05 4.76,5.26 8.72,9.36 11.47,12.13 1.37,1.38 2.44,2.43 3.16,3.13 l 0.81,0.77 0.23,0.22 c 4.04,3.77 4.26,10.09 0.49,14.13 -3.77,4.04 -10.1,4.26 -14.14,0.49 -0.33,-0.32 -26.78,-25.01 -53.43,-63.54 -26.57,-38.54 -53.71,-91.01 -53.81,-147.74 0,-0.99 0.01,-1.97 0.03,-2.95 0.95,-56.27 20.89,-100.02 40.52,-129.52 19.65,-29.53 39,-45.03 39.56,-45.49 4.32,-3.44 10.61,-2.74 14.06,1.58 3.44,4.32 2.74,10.61 -1.58,14.05"
         style="fill:#91918f;fill-opacity:1;fill-rule:nonzero;stroke:none"
         id="path340" /><path
         d="m 9894.04,3204.52 c -12.8,15.11 -26.03,30.3 -39.73,45.52 -5.55,6.16 -15.03,6.66 -21.19,1.12 -6.16,-5.54 -6.66,-15.03 -1.11,-21.18 13.48,-14.99 26.52,-29.96 39.13,-44.85 5.36,-6.32 14.82,-7.11 21.14,-1.75 6.32,5.35 7.11,14.82 1.76,21.14"
         style="fill:#ffffff;fill-opacity:1;fill-rule:nonzero;stroke:none"
         id="path342" /><path
         d="m 9779.07,3329.18 c -25.2,25.08 -51.69,50.1 -79.5,74.87 -6.19,5.51 -15.67,4.96 -21.18,-1.23 -5.51,-6.18 -4.96,-15.66 1.22,-21.17 27.39,-24.4 53.48,-49.03 78.29,-73.74 5.88,-5.84 15.37,-5.82 21.22,0.05 5.84,5.87 5.82,15.37 -0.05,21.21 z M 9616,3474.37 c -27.95,22.22 -57.07,44.1 -87.39,65.52 -6.77,4.77 -16.13,3.16 -20.91,-3.6 -4.78,-6.77 -3.17,-16.13 3.6,-20.91 29.85,-21.08 58.51,-42.62 86.04,-64.49 6.48,-5.16 15.92,-4.08 21.07,2.41 5.16,6.49 4.08,15.92 -2.41,21.07 z m -178.36,125.98 c -30.33,18.95 -61.74,37.39 -94.23,55.21 -7.26,3.99 -16.38,1.33 -20.37,-5.93 -3.98,-7.26 -1.33,-16.38 5.94,-20.37 31.99,-17.55 62.9,-35.7 92.77,-54.36 7.03,-4.39 16.28,-2.25 20.67,4.78 4.39,7.02 2.25,16.28 -4.78,20.67"
         style="fill:#ffffff;fill-opacity:1;fill-rule:nonzero;stroke:none"
         id="path344" /><path
         d="m 9246.07,3705.47 c -18,8.6 -36.33,17.01 -54.94,25.22 -7.58,3.34 -16.44,-0.1 -19.78,-7.68 -3.34,-7.58 0.1,-16.43 7.68,-19.77 18.34,-8.09 36.38,-16.37 54.12,-24.84 7.47,-3.57 16.43,-0.41 20,7.07 3.57,7.47 0.4,16.43 -7.07,20"
         style="fill:#ffffff;fill-opacity:1;fill-rule:nonzero;stroke:none"
         id="path346" /><path
         d="m 9760.43,3056.36 c -11.23,16.32 -22.9,32.74 -35,49.25 -4.91,6.68 -14.29,8.12 -20.97,3.22 -6.68,-4.9 -8.12,-14.29 -3.22,-20.97 11.93,-16.26 23.42,-32.44 34.48,-48.5 4.7,-6.83 14.04,-8.55 20.86,-3.86 6.83,4.7 8.55,14.04 3.85,20.86"
         style="fill:#ffffff;fill-opacity:1;fill-rule:nonzero;stroke:none"
         id="path348" /><path
         d="m 9660.52,3189.32 c -21.86,26.69 -44.93,53.45 -69.27,80.14 -5.59,6.12 -15.08,6.56 -21.2,0.98 -6.12,-5.59 -6.55,-15.07 -0.97,-21.19 23.98,-26.29 46.7,-52.65 68.23,-78.94 5.25,-6.41 14.7,-7.35 21.11,-2.1 6.41,5.25 7.35,14.7 2.1,21.11 z m -142.73,156.48 c -24.66,24.3 -50.46,48.44 -77.42,72.31 -6.2,5.49 -15.68,4.91 -21.17,-1.29 -5.49,-6.2 -4.92,-15.68 1.29,-21.18 26.55,-23.51 51.95,-47.28 76.25,-71.21 5.9,-5.82 15.4,-5.74 21.21,0.16 5.81,5.9 5.74,15.4 -0.16,21.21 z m -158.57,140.39 c -27.15,21.58 -55.34,42.84 -84.62,63.7 -6.75,4.81 -16.12,3.24 -20.92,-3.51 -4.81,-6.74 -3.24,-16.11 3.51,-20.92 28.84,-20.55 56.62,-41.5 83.36,-62.75 6.49,-5.16 15.93,-4.08 21.08,2.41 5.15,6.48 4.07,15.92 -2.41,21.07"
         style="fill:#ffffff;fill-opacity:1;fill-rule:nonzero;stroke:none"
         id="path350" /><path
         d="m 9186.65,3609.17 c -16.83,10.73 -33.97,21.3 -51.44,31.73 -7.11,4.25 -16.32,1.93 -20.57,-5.18 -4.25,-7.11 -1.92,-16.32 5.19,-20.57 17.22,-10.29 34.12,-20.71 50.69,-31.28 6.99,-4.45 16.26,-2.39 20.71,4.59 4.46,6.99 2.4,16.26 -4.58,20.71"
         style="fill:#ffffff;fill-opacity:1;fill-rule:nonzero;stroke:none"
         id="path352" /><path
         d="m 11617.9,6066.02 c -127.2,0 -263.2,26.02 -369.3,76.26 -187.7,88.96 -210.1,220.17 -50,293.06 69.7,31.73 162.4,47.18 260.5,47.18 127.2,0 263.2,-26.01 369.2,-76.25 187.7,-88.97 210.1,-220.17 50.1,-293.07 -69.7,-31.72 -162.5,-47.18 -260.5,-47.18"
         style="fill:#80b552;fill-opacity:1;fill-rule:nonzero;stroke:none"
         id="path354" /><path
         d="m 11239.4,6491.78 c 0,0 12,-181.08 473.2,-289.31 l 25.1,44.04 -406,360.08 -92.3,-114.81"
         style="fill:#db945a;fill-opacity:1;fill-rule:nonzero;stroke:none"
         id="path356" /><path
         d="m 11708.3,6186.46 83.1,-32.59 c 50.9,-40.63 72.7,-67.01 102.1,-58.74 l 8.3,2.34 c 29.4,8.26 32.7,35.11 7.5,59.68 l -100.6,132.33 c -25.2,24.56 -66.4,29.3 -95.3,14.6 0,0 -17.3,-9.14 -20.9,-65.33 -2,-32.05 -4.3,-32.64 15.8,-52.29"
         style="fill:#27427a;fill-opacity:1;fill-rule:nonzero;stroke:none"
         id="path358" /><path
         d="m 11912.6,6157.35 -38.9,47.68 c -7.6,9.3 -14.6,19.07 -20.9,29.28 l -33,53.15 c -21.3,21.78 -56.1,27.54 -84,17.88 1.4,-4.01 -2.6,3.58 0,0 -6,-14.26 30.2,-65.15 76.7,-115.91 l 70.3,-91.93 2.1,-2.53 c 3,0.11 6,0.51 9.2,1.4 l 8.3,2.3 c 29.2,8.13 33.8,34.53 10.2,58.68"
         style="fill:#172747;fill-opacity:1;fill-rule:nonzero;stroke:none"
         id="path360" /><path
         d="m 11045.7,7106.66 321.4,-2.65 -70.8,-148.25 c 0,0 -279.1,79.45 -286.4,97 -7.3,17.55 35.8,53.9 35.8,53.9"
         style="fill:#db945a;fill-opacity:1;fill-rule:nonzero;stroke:none"
         id="path362" /><path
         d="m 11074,7024.41 c 0,-85.99 -119.1,-71.49 -233.2,-71.49 -114.1,0 -190.6,11.83 -190.6,97.83 0,86 116.7,189.84 201.7,189.84 114.1,0 222.1,-130.18 222.1,-216.18"
         style="fill:#5b7a35;fill-opacity:1;fill-rule:nonzero;stroke:none"
         id="path364" /><path
         d="m 10813.9,6971.83 v 0 c -1.6,-19.7 -18.5,-35.56 -37.6,-35.23 l -66.3,1.12 c -19,0.33 -33.3,16.69 -31.8,36.37 1.6,19.7 18.5,35.55 37.6,35.23 l 66.3,-1.13 c 19,-0.32 33.3,-16.68 31.8,-36.36"
         style="fill:#db945a;fill-opacity:1;fill-rule:nonzero;stroke:none"
         id="path366" /><path
         d="m 11564.9,7398.72 -102.8,148.17 -98.1,-25.44 81.9,-159.92 119,37.19"
         style="fill:#db945a;fill-opacity:1;fill-rule:nonzero;stroke:none"
         id="path368" /><path
         d="m 11471.3,7722.05 c 0,0 90.5,-258.38 -88.6,-298.26 0,0 -67.1,-37.64 -98.8,149.19 -31.6,186.83 102,181.96 187.4,149.07"
         style="fill:#db945a;fill-opacity:1;fill-rule:nonzero;stroke:none"
         id="path370" /><path
         d="m 11362.4,7421.21 c 0,0 40.5,39.31 54.2,95.76 l 85.9,-33.44 47.8,-84.71 -115.2,-32.74 -27.7,61.2 c 0,0 -31.6,-10.8 -45,-6.07"
         style="fill:#db945a;fill-opacity:1;fill-rule:nonzero;stroke:none"
         id="path372" /><path
         d="m 11491.7,7469.2 -13,-1.03 c -10.9,-4.63 -35.1,18.53 -41.2,28.83 -10.8,18.19 -37.1,24.13 -49.5,52.3 -4.9,11.16 -28,2.08 -37,22.2 -16.7,37.08 -71.4,66.73 -71.4,66.73 0,0 -24.6,4.22 -22.8,24.62 2.6,29.8 20.8,26.89 36.5,45.93 34.9,42.53 181,82 239.9,-7.12 67.3,-101.69 -41.5,-232.46 -41.5,-232.46"
         style="fill:#27427a;fill-opacity:1;fill-rule:nonzero;stroke:none"
         id="path374" /><path
         d="m 11364.9,7528.79 c 4,-18.28 19.1,-30.9 33.7,-28.19 14.6,2.71 23.2,19.73 19.2,38.01 -3.9,18.27 -19,30.89 -33.6,28.18 -14.6,-2.71 -23.3,-19.73 -19.3,-38"
         style="fill:#db945a;fill-opacity:1;fill-rule:nonzero;stroke:none"
         id="path376" /><path
         d="m 11132.6,6462.53 c 0,0 -89.6,-191.93 489.4,-364.44 l 35.7,81.99 -407.9,284.19 -117.2,-1.74"
         style="fill:#db945a;fill-opacity:1;fill-rule:nonzero;stroke:none"
         id="path378" /><path
         d="m 11813.9,6795.23 -472,-104.83 c -53.4,-11.85 -102.1,-39.22 -139.4,-79.11 -79,-84.29 -172.9,-228.89 49.1,-279.27 l 443,-73.35 c 95.1,-16.67 177.4,-1.93 225.5,88.49 42.4,79.69 17.3,243.17 -30.6,309.48 l -75.6,138.59"
         style="fill:#223a6b;fill-opacity:1;fill-rule:nonzero;stroke:none"
         id="path380" /><path
         d="m 11203,6610.18 c -34.1,-36.38 -70.9,-84 -84,-130.43 l 267.6,-44.31 c 70.8,-1.54 130.7,22.42 168.9,94.3 27.2,51.16 26.5,136.75 9.9,209.09 l -223,-49.54 c -53.3,-11.84 -102.1,-39.22 -139.4,-79.11"
         style="fill:#27427a;fill-opacity:1;fill-rule:nonzero;stroke:none"
         id="path382" /><path
         d="m 11620.6,6091.34 81.9,-32.12 c 50.1,-40.04 71.6,-66.02 100.5,-57.88 l 8.2,2.31 c 28.9,8.14 32.3,34.6 7.5,58.8 l -41.3,47.79 c -8,9.32 -15.5,19.11 -22.3,29.34 l -35.6,53.27 c -24.9,24.2 -65.4,28.86 -93.9,14.39 0,0 -17.1,-9.02 -20.6,-64.38 -2,-31.58 -4.3,-32.16 15.6,-51.52"
         style="fill:#27427a;fill-opacity:1;fill-rule:nonzero;stroke:none"
         id="path384" /><path
         d="m 11816.3,6838.41 c 0,0 -20.5,117.59 -28.3,190.97 -11.5,107.15 -37.9,300.03 -38,300.81 -9.1,56.07 8.8,93.81 -93.1,127.46 l -106.4,8.49 -121.5,-88.48 c 0,0 -168.3,-172.25 -134.8,-300.24 15.7,-59.8 93.3,-142.76 130,-222.37 l 2,-167.43 c 31.5,-123.87 369.5,-3.03 406.2,108.82 7.7,23.44 -8.2,41.05 -16.1,41.97"
         style="fill:#5da0ef;fill-opacity:1;fill-rule:nonzero;stroke:none"
         id="path386" /><path
         d="m 11391.9,7135.4 c 92.3,-117.75 160.4,-464.47 172.2,-497.37 -70.1,-11.5 -129.8,-0.62 -142.2,48.04 l -2,167.44 c -36.7,79.61 -114.3,162.57 -129.9,222.36 -11.4,43.44 0.5,91.97 21.1,137.13 6.6,6.15 10.5,9.8 10.5,9.8 0,0 24.6,-29.13 70.3,-87.4"
         style="fill:#478de2;fill-opacity:1;fill-rule:nonzero;stroke:none"
         id="path388" /><path
         d="m 11110.2,6948.62 c -145.5,30.52 -266.3,19.38 -357.5,60.71 l -6.7,-63.51 c 0,0 391.3,-182.98 427.7,-118.12 54.5,96.94 -63.5,120.92 -63.5,120.92"
         style="fill:#db945a;fill-opacity:1;fill-rule:nonzero;stroke:none"
         id="path390" /><path
         d="m 11400.2,7188.23 c 0,0 -180,-350.01 -247.3,-367.49 -67.3,-17.48 -70.1,102.24 -70.1,102.24 l 220.9,306.85 96.5,-41.6"
         style="fill:#db945a;fill-opacity:1;fill-rule:nonzero;stroke:none"
         id="path392" /><path
         d="m 11167.8,7060.61 -22.3,-36.22 c 0,0 33.9,-70.87 123.1,-79.66 l 23.6,35.53 -124.4,80.35"
         style="fill:#ffffff;fill-opacity:1;fill-rule:nonzero;stroke:none"
         id="path394" /><path
         d="m 11407.2,7347.6 c 0,0 -93,-43.32 -141.7,-139.29 -26.6,-52.33 -98.5,-151.49 -98.5,-151.49 5.9,-56.85 47.2,-79.99 143,-101.06 l 234.5,374.98 -137.3,16.86"
         style="fill:#5da0ef;fill-opacity:1;fill-rule:nonzero;stroke:none"
         id="path396" /><path
         d="m 11401.5,7346.67 20,59.4 203.3,80.46 c 0,0 -4.1,-97.94 -100.7,-99.23 -56,-0.74 -122.6,-40.63 -122.6,-40.63"
         style="fill:#ffffff;fill-opacity:1;fill-rule:nonzero;stroke:none"
         id="path398" /><path
         d="m 11820.2,6063.38 -41.2,47.79 c -8.1,9.31 -15.5,19.11 -22.3,29.34 l -35.7,53.26 c -22.4,21.84 -57.5,27.62 -85.1,17.94 1.7,-4.02 -2.7,3.59 0,0 -5.2,-14.29 33.4,-65.29 82.4,-116.16 l 74.9,-92.14 2.2,-2.54 c 3,0.11 6.1,0.51 9.2,1.4 l 8.2,2.3 c 28.9,8.14 32.3,34.61 7.4,58.81"
         style="fill:#172747;fill-opacity:1;fill-rule:nonzero;stroke:none"
         id="path400" /><path
         d="m 11435.2,7507.4 c 0,0 23.5,-95.97 103.3,-163.68 35.9,-30.53 43.9,-133.63 127.5,-110.55 83.6,23.09 150.2,146.23 -2.6,287.84 -44.7,41.35 -118.3,158.21 -118.3,158.21 l -109.9,-171.82"
         style="fill:#27427a;fill-opacity:1;fill-rule:nonzero;stroke:none"
         id="path402" /><path
         d="m 10861.1,7176.96 c 0,0.08 0.2,7.63 0.2,20.44 0,26.15 -1,74.18 -6.9,125.33 -5.9,51.19 -16.6,105.37 -37.1,144.74 -2.4,4.57 -8,6.34 -12.6,3.95 -4.6,-2.39 -6.4,-8.03 -4,-12.61 18.6,-35.43 29.4,-88.2 35.2,-138.23 5.7,-50.06 6.7,-97.5 6.7,-123.18 0,-6.29 -0.1,-11.28 -0.1,-14.68 -0.1,-3.41 -0.1,-5.18 -0.1,-5.19 -0.2,-5.16 3.9,-9.47 9,-9.63 5.2,-0.16 9.5,3.9 9.7,9.06"
         style="fill:#27427a;fill-opacity:1;fill-rule:nonzero;stroke:none"
         id="path404" /><path
         d="m 10858.9,7236.95 c 0,0.01 0,1.78 -0.1,5.19 0,3.4 -0.1,8.39 -0.1,14.68 0,25.68 1,73.12 6.8,123.19 5.7,50.02 16.5,102.79 35.1,138.22 2.4,4.57 0.6,10.22 -4,12.61 -4.6,2.39 -10.2,0.62 -12.6,-3.96 -20.5,-39.36 -31.1,-93.55 -37.1,-144.73 -5.9,-51.15 -6.9,-99.18 -6.9,-125.33 0,-12.81 0.3,-20.37 0.3,-20.45 0.1,-5.16 4.4,-9.21 9.6,-9.05 5.2,0.16 9.2,4.47 9,9.63"
         style="fill:#27427a;fill-opacity:1;fill-rule:nonzero;stroke:none"
         id="path406" /><path
         d="m 10674.3,7605.85 c 0,0 135.4,-2.85 144.8,-149.87 0,0 -129.5,-14.65 -144.8,149.87"
         style="fill:#27427a;fill-opacity:1;fill-rule:nonzero;stroke:none"
         id="path408" /><path
         d="m 10987.6,7607.36 c 0,0 21.8,-133.71 -121,-169.62 0,0 -38,124.63 121,169.62"
         style="fill:#27427a;fill-opacity:1;fill-rule:nonzero;stroke:none"
         id="path410" /><path
         d="m 1867.3,6640.61 66.74,77.54 c 46.13,-43.18 107.96,-72.63 166.84,-72.63 72.63,0 111.89,32.39 111.89,82.44 0,53 -41.22,69.69 -99.13,94.22 l -88.33,38.28 c -62.81,26.5 -129.55,76.55 -129.55,170.77 0,102.07 90.3,180.59 215.92,180.59 74.59,0 147.22,-31.41 197.27,-81.46 l -57.9,-72.63 c -41.22,34.35 -84.41,54.96 -139.37,54.96 -60.85,0 -101.09,-28.46 -101.09,-75.57 0,-50.06 49.07,-68.7 102.07,-90.29 l 87.35,-36.32 c 75.57,-32.39 129.55,-80.48 129.55,-173.71 0,-104.04 -86.37,-190.4 -230.64,-190.4 -86.37,0 -170.77,34.35 -231.62,94.21"
         style="fill:#61615c;fill-opacity:1;fill-rule:nonzero;stroke:none"
         id="path412" /><path
         d="m 2694.62,6687.72 v 107.96 c -131.51,-16.68 -174.69,-51.03 -174.69,-99.12 0,-43.19 29.44,-61.83 69.68,-61.83 39.26,0 68.7,19.62 105.01,52.99 z m -283.63,0 c 0,103.06 85.38,157.04 283.63,178.63 -1.96,51.03 -22.57,94.22 -88.33,94.22 -47.1,0 -92.25,-21.6 -135.43,-47.11 l -41.23,75.57 c 53,33.37 121.7,62.81 198.26,62.81 119.73,0 179.6,-73.61 179.6,-208.07 v -285.6 h -93.24 l -7.85,53 h -3.92 c -43.19,-36.31 -92.26,-64.77 -149.18,-64.77 -84.41,0 -142.31,56.92 -142.31,141.32"
         style="fill:#61615c;fill-opacity:1;fill-rule:nonzero;stroke:none"
         id="path414" /><path
         d="m 2883.02,7040.06 h 114.83 l 76.56,-250.27 c 12.75,-47.11 27.48,-96.18 40.23,-145.25 h 3.93 c 13.74,49.07 27.48,98.14 41.22,145.25 l 76.55,250.27 h 108.94 l -163.9,-481.89 h -130.53 l -167.83,481.89"
         style="fill:#61615c;fill-opacity:1;fill-rule:nonzero;stroke:none"
         id="path416" /><path
         d="m 3714.28,6844.76 c 0,74.59 -32.39,119.73 -98.15,119.73 -56.92,0 -105.99,-42.2 -115.81,-119.73 z m -322.9,-46.13 c 0,157.03 108.94,253.21 221.81,253.21 130.53,0 199.23,-94.22 199.23,-228.68 0,-21.59 -1.96,-43.18 -4.9,-54.96 H 3501.3 c 9.82,-85.38 64.78,-134.46 142.31,-134.46 41.22,0 76.56,12.76 111.89,35.34 l 38.28,-70.67 c -46.13,-30.42 -104.04,-52.01 -164.89,-52.01 -133.47,0 -237.51,93.23 -237.51,252.23"
         style="fill:#61615c;fill-opacity:1;fill-rule:nonzero;stroke:none"
         id="path418" /><path
         d="m 4255.98,7103.86 h -185.49 v 96.18 h 484.83 v -96.18 h -185.49 v -545.69 h -113.85 v 545.69"
         style="fill:#61615c;fill-opacity:1;fill-rule:nonzero;stroke:none"
         id="path420" /><path
         d="m 4652.45,7251.07 h 112.86 v -178.62 l -3.92,-93.24 c 40.24,38.28 88.33,72.63 154.08,72.63 103.06,0 148.2,-69.68 148.2,-191.38 v -302.29 h -112.86 v 287.57 c 0,79.49 -22.58,108.94 -75.57,108.94 -42.21,0 -69.69,-20.61 -109.93,-59.87 v -336.64 h -112.86 v 692.9"
         style="fill:#61615c;fill-opacity:1;fill-rule:nonzero;stroke:none"
         id="path422" /><path
         d="m 5491.55,6844.76 c 0,74.59 -32.39,119.73 -98.15,119.73 -56.92,0 -105.99,-42.2 -115.81,-119.73 z m -322.9,-46.13 c 0,157.03 108.94,253.21 221.81,253.21 130.53,0 199.23,-94.22 199.23,-228.68 0,-21.59 -1.96,-43.18 -4.9,-54.96 h -306.21 c 9.81,-85.38 64.77,-134.46 142.31,-134.46 41.22,0 76.55,12.76 111.88,35.34 l 38.28,-70.67 c -46.13,-30.42 -104.04,-52.01 -164.89,-52.01 -133.47,0 -237.51,93.23 -237.51,252.23"
         style="fill:#61615c;fill-opacity:1;fill-rule:nonzero;stroke:none"
         id="path424" /><path
         d="m 1911.47,6022.36 h 386.69 v -96.18 h -272.85 v -163.91 h 230.64 v -96.18 h -230.64 v -189.42 h 282.66 v -96.18 h -396.5 v 641.87"
         style="fill:#61615c;fill-opacity:1;fill-rule:nonzero;stroke:none"
         id="path426" /><path
         d="M 2687.75,5510.04 V 5618 c -131.51,-16.68 -174.69,-51.03 -174.69,-99.12 0,-43.19 29.44,-61.83 69.68,-61.83 39.26,0 68.7,19.62 105.01,52.99 z m -283.63,0 c 0,103.06 85.38,157.03 283.63,178.63 -1.96,51.03 -22.57,94.22 -88.33,94.22 -47.1,0 -92.25,-21.6 -135.43,-47.11 l -41.23,75.57 c 53,33.37 121.7,62.81 198.26,62.81 119.73,0 179.6,-73.61 179.6,-208.07 v -285.6 h -93.24 l -7.85,53 h -3.92 c -43.19,-36.31 -92.26,-64.77 -149.18,-64.77 -84.41,0 -142.31,56.92 -142.31,141.32"
         style="fill:#61615c;fill-opacity:1;fill-rule:nonzero;stroke:none"
         id="path428" /><path
         d="m 2936.02,5862.38 h 93.24 l 7.85,-85.38 h 3.93 c 34.35,62.81 85.38,97.16 136.42,97.16 24.53,0 40.24,-2.94 54.96,-9.81 l -19.63,-98.15 c -16.69,4.91 -29.44,7.85 -50.05,7.85 -38.28,0 -84.41,-26.5 -113.85,-99.12 v -294.44 h -112.87 v 481.89"
         style="fill:#61615c;fill-opacity:1;fill-rule:nonzero;stroke:none"
         id="path430" /><path
         d="m 3318.75,5543.41 v 229.66 h -68.7 v 84.4 l 74.59,4.91 13.74,131.52 h 94.22 v -131.52 h 122.68 v -89.31 H 3432.6 v -229.66 c 0,-56.92 21.59,-84.4 67.72,-84.4 16.68,0 36.31,4.91 50.05,10.79 l 19.63,-83.42 c -26.5,-8.83 -59.87,-17.66 -98.14,-17.66 -111.89,0 -153.11,70.66 -153.11,174.69"
         style="fill:#61615c;fill-opacity:1;fill-rule:nonzero;stroke:none"
         id="path432" /><path
         d="m 3656.34,6073.39 h 112.87 v -178.62 l -3.93,-93.24 c 40.24,38.28 88.33,72.63 154.09,72.63 103.05,0 148.19,-69.68 148.19,-191.38 V 5380.49 H 3954.7 v 287.57 c 0,79.49 -22.58,108.94 -75.57,108.94 -42.21,0 -69.69,-20.61 -109.92,-59.87 v -336.64 h -112.87 v 692.9"
         style="fill:#61615c;fill-opacity:1;fill-rule:nonzero;stroke:none"
         id="path434" /><path
         d="m 8786.44,6973.95 c -99.1,75.09 -228.25,84.3 -339.02,29.09 -109.02,-54.33 -188.38,-157.62 -234.56,-268.68 -46.17,111.06 -125.53,214.35 -234.55,268.68 -110.77,55.21 -239.92,46.01 -339.02,-29.08 -96.17,-72.88 -154.63,-193.9 -145.37,-314.97 10.27,-134.16 89.11,-248.59 181.32,-341.54 102.49,-103.32 223.17,-185.27 329.81,-284.06 162.17,-150.25 199.48,-231.22 207.81,-231.37 8.33,0.15 45.65,81.12 207.82,231.37 106.64,98.79 227.33,180.74 329.81,284.06 92.21,92.95 171.05,207.38 181.32,341.53 9.26,121.08 -49.19,242.1 -145.37,314.97"
         style="fill:#e69f58;fill-opacity:1;fill-rule:nonzero;stroke:none"
         id="path436" /><g
         id="g438"><g
           id="g440"
           clip-path="url(#clipPath444)"><path
             d="m 10220.9,2046.32 h 1330.4 v 3063.45 h -1330.4 z"
             style="fill:#6aab40;fill-opacity:1;fill-rule:nonzero;stroke:none"
             id="path446" /></g></g><path
         d="m 11121.1,4170.98 c -29.1,62.12 -54.8,127.73 -76.9,196.47 -1.1,169.03 0.9,348.98 6.7,540.43 l 61.4,95.92 c 11.8,13.27 24.2,26.34 37.1,39.31 -6.6,-87.55 -30.7,-435.51 -28.3,-872.13 m -77.2,197.51 c -7.3,22.6 -14.1,45.54 -20.6,68.83 -4.1,14.65 -7.8,28.91 -11.2,42.83 l 10.8,-0.27 21,-111.39"
         style="fill:#578b34;fill-opacity:1;fill-rule:nonzero;stroke:none"
         id="path448" /><path
         d="m 10802,1992.49 -16.6,1.68 c 5.4,-0.41 10.8,-0.81 16.2,-1.18 0.1,-0.17 0.3,-0.33 0.4,-0.5 m -145.2,14.65 -13.6,1.38 c 0,0 -0.1,0.14 -0.3,0.42 4.7,-0.61 9.3,-1.21 13.9,-1.8"
         style="fill:#75a679;fill-opacity:1;fill-rule:nonzero;stroke:none"
         id="path450" /><path
         d="m 10801.6,1992.99 c -5.4,0.37 -10.8,0.77 -16.2,1.18 l -128.6,12.97 c -4.6,0.59 -9.2,1.19 -13.9,1.8 -4.9,8.4 -84.1,145.44 -169.9,459.98 28.7,7.78 57,15.85 85.1,24.23 36.1,-116.42 77.9,-223.44 126.3,-317.21 l 659.9,-15.93 c -33.5,85.18 -76.5,213.26 -119.6,392.94 l -473,4.28 c 69.3,25.31 137,52.65 202.4,81.71 l 252.3,-6.09 c -8.3,37.55 -16.5,77.06 -24.6,118.61 21.9,11.95 43.7,24.24 65,36.63 65.3,-300.2 162.2,-564.03 304.1,-739.1 -4,-0.9 -8,-1.79 -12.1,-2.67 l -131.4,-23.34 c 0,0 -10.9,17.77 -28.8,56.46 l -642.6,5.81 c 20.8,-33.07 42.6,-63.91 65.6,-92.26"
         style="fill:#4c932f;fill-opacity:1;fill-rule:nonzero;stroke:none"
         id="path452" /><path
         d="m 10136.8,2217.26 39.2,497.44 698.1,-47.83 -39.2,-497.44 z m 87.8,1112.82 698.1,-47.82 -39.3,-497.45 -698.1,47.82 z m 48.5,615.38 698.1,-47.82 -39.2,-497.45 -698.1,47.82 z m 746.6,567.56 -39.2,-497.44 -698.1,47.81 39.2,497.44 z m -741.5,611.21 -282.27,-3578.63 c -2.75,-34.97 13.27,-64.82 35.57,-66.34 l 6.3,-0.43 c 22.3,-1.54 42.8,25.82 45.5,60.78 l 44.2,559.71 698.1,-47.82 -44.2,-559.7 c -2.7,-34.96 13.3,-64.82 35.6,-66.35 l 6.3,-0.43 c 22.3,-1.52 42.8,25.83 45.6,60.78 l 46.9,595.55 3.7,46.27 44.9,569.1 v 0.01 l 1.8,23.77 50.2,635.57 0.1,2.3 45.9,581.31 2.7,34.07 v 0.01 l 44.9,569.1 3.6,46.27 v 0.01 l 37.5,475.3 c 2.8,34.96 -13.2,64.81 -35.5,66.34 l -6.4,0.44 c -22.2,1.52 -42.7,-25.83 -45.5,-60.79 l -34.7,-439.47 -698.1,47.81 34.7,439.48 c 2.8,34.96 -13.2,64.81 -35.5,66.34 l -6.4,0.43 c -22.3,1.53 -42.8,-25.83 -45.5,-60.79"
         style="fill:#223a6b;fill-opacity:1;fill-rule:nonzero;stroke:none"
         id="path454" /><path
         d="m 14619.3,10000 c 0,0 -244.3,-1449.08 1380.7,-1460.44 V 10000 h -1380.7"
         style="fill:#f5f5e9;fill-opacity:1;fill-rule:nonzero;stroke:none"
         id="path456" /><path
         d="M 2131.69,0 C 2131.69,0 1795.88,1938.67 0,2254.8 V 0 h 2131.69"
         style="fill:#f5f5e9;fill-opacity:1;fill-rule:nonzero;stroke:none"
         id="path458" /><path
         d="m 8786.44,6973.95 c -11.86,8.99 -24.17,16.97 -36.81,24.07 -103.64,-497.86 -495.3,-935.47 -633.15,-1077.04 69.81,-77.79 90.45,-118.86 96.38,-118.96 8.33,0.15 45.65,81.12 207.82,231.37 106.64,98.79 227.33,180.74 329.81,284.06 92.21,92.95 171.05,207.38 181.32,341.53 9.26,121.08 -49.19,242.1 -145.37,314.97"
         style="fill:#de944b;fill-opacity:1;fill-rule:nonzero;stroke:none"
         id="path460" /><path
         d="m 9333.63,5544.72 c -90.93,0 -164.65,39.78 -164.65,88.85 0,49.06 73.72,88.83 164.65,88.83 90.94,0 164.66,-39.77 164.66,-88.83 0,-49.07 -73.72,-88.85 -164.66,-88.85"
         style="fill:#578b34;fill-opacity:1;fill-rule:nonzero;stroke:none"
         id="path462" /><path
         d="m 9333.63,5601.2 v 0 c -19.55,0 -35.54,15.99 -35.54,35.54 v 398.54 c 0,19.54 15.99,35.54 35.54,35.54 19.55,0 35.55,-16 35.55,-35.54 v -398.54 c 0,-19.55 -16,-35.54 -35.55,-35.54"
         style="fill:#223a6b;fill-opacity:1;fill-rule:nonzero;stroke:none"
         id="path464" /><path
         d="m 9493.31,6310.66 c 12.21,25.33 19.25,53.61 19.25,83.6 0,106.62 -86.44,193.06 -193.07,193.06 -106.62,0 -193.05,-86.44 -193.05,-193.06 0,-36.75 10.45,-70.98 28.27,-100.22 -49.55,-47.24 -80.49,-113.86 -80.49,-187.73 0,-143.27 116.14,-259.42 259.41,-259.42 143.28,0 259.42,116.15 259.42,259.42 0,83.02 -39.05,156.87 -99.74,204.35"
         style="fill:#59822a;fill-opacity:1;fill-rule:nonzero;stroke:none"
         id="path466" /><path
         d="m 9493.31,6310.66 c 12.21,25.33 19.25,53.61 19.25,83.6 0,51.71 -20.45,98.56 -53.55,133.21 -13.11,-318.08 -153.69,-567.89 -216.32,-664.15 28.31,-10.6 58.94,-16.43 90.94,-16.43 143.28,0 259.42,116.15 259.42,259.42 0,83.02 -39.05,156.87 -99.74,204.35"
         style="fill:#486922;fill-opacity:1;fill-rule:nonzero;stroke:none"
         id="path468" /><path
         d="m 11886.7,4083.39 c -90.9,0 -164.6,39.76 -164.6,88.84 0,49.06 73.7,88.83 164.6,88.83 91,0 164.7,-39.77 164.7,-88.83 0,-49.08 -73.7,-88.84 -164.7,-88.84"
         style="fill:#578b34;fill-opacity:1;fill-rule:nonzero;stroke:none"
         id="path470" /><path
         d="m 11886.7,4139.85 v 0 c -19.5,0 -35.5,16 -35.5,35.55 v 398.53 c 0,19.56 16,35.55 35.5,35.55 19.6,0 35.6,-15.99 35.6,-35.55 V 4175.4 c 0,-19.55 -16,-35.55 -35.6,-35.55"
         style="fill:#223a6b;fill-opacity:1;fill-rule:nonzero;stroke:none"
         id="path472" /><path
         d="m 12046.4,4849.33 c 12.2,25.32 19.3,53.6 19.3,83.59 0,106.62 -86.5,193.06 -193.1,193.06 -106.6,0 -193.1,-86.44 -193.1,-193.06 0,-36.76 10.5,-70.98 28.3,-100.23 -49.5,-47.24 -80.5,-113.85 -80.5,-187.73 0,-143.26 116.2,-259.4 259.4,-259.4 143.3,0 259.5,116.14 259.5,259.4 0,83.03 -39.1,156.89 -99.8,204.37"
         style="fill:#59822a;fill-opacity:1;fill-rule:nonzero;stroke:none"
         id="path474" /><path
         d="m 12046.4,4849.33 c 12.2,25.32 19.3,53.6 19.3,83.59 0,51.71 -20.5,98.55 -53.6,133.21 -13.1,-318.07 -153.7,-567.89 -216.3,-664.15 28.3,-10.59 58.9,-16.42 90.9,-16.42 143.3,0 259.5,116.14 259.5,259.4 0,83.03 -39.1,156.89 -99.8,204.37"
         style="fill:#486922;fill-opacity:1;fill-rule:nonzero;stroke:none"
         id="path476" /><path
         d="m 12481.6,4603.84 c -90.9,0 -164.7,39.76 -164.7,88.84 0,49.06 73.8,88.82 164.7,88.82 50.9,0 96.4,-12.46 126.6,-32.03 -7.8,-42.61 -16.4,-84.9 -25.9,-127.1 -27.9,-11.62 -62.8,-18.53 -100.7,-18.53"
         style="fill:#578b34;fill-opacity:1;fill-rule:nonzero;stroke:none"
         id="path478" /><path
         d="m 12582.3,4622.37 c 9.5,42.2 18.1,84.49 25.9,127.1 23.8,-15.4 38,-35.19 38,-56.79 0,-28.61 -25,-54.06 -63.9,-70.31"
         style="fill:#3f7726;fill-opacity:1;fill-rule:nonzero;stroke:none"
         id="path480" /><path
         d="m 12481.6,4660.3 v 0 c -19.6,0 -35.6,16 -35.6,35.55 v 398.53 c 0,19.55 16,35.55 35.6,35.55 19.5,0 35.5,-16 35.5,-35.55 v -398.53 c 0,-19.55 -16,-35.55 -35.5,-35.55"
         style="fill:#223a6b;fill-opacity:1;fill-rule:nonzero;stroke:none"
         id="path482" /><path
         d="m 12641.3,5369.77 c 12.2,25.32 19.2,53.6 19.2,83.59 0,106.63 -86.4,193.07 -193,193.07 -106.7,0 -193.1,-86.44 -193.1,-193.07 0,-36.74 10.5,-70.97 28.3,-100.21 -49.6,-47.25 -80.5,-113.86 -80.5,-187.74 0,-143.27 116.1,-259.4 259.4,-259.4 143.3,0 259.4,116.13 259.4,259.4 0,83.03 -39,156.88 -99.7,204.36"
         style="fill:#e69f58;fill-opacity:1;fill-rule:nonzero;stroke:none"
         id="path484" /><path
         d="m 12641.3,5369.77 c 12.2,25.32 19.2,53.6 19.2,83.59 0,51.71 -20.4,98.56 -53.5,133.22 -13.1,-318.08 -153.7,-567.89 -216.3,-664.15 28.3,-10.59 58.9,-16.42 90.9,-16.42 143.3,0 259.4,116.13 259.4,259.4 0,83.03 -39,156.88 -99.7,204.36"
         style="fill:#d68431;fill-opacity:1;fill-rule:nonzero;stroke:none"
         id="path486" /></g></g></svg>
